G75*
%MOIN*%
%OFA0B0*%
%FSLAX24Y24*%
%IPPOS*%
%LPD*%
%AMOC8*
5,1,8,0,0,1.08239X$1,22.5*
%
%ADD10R,0.0433X0.0433*%
%ADD11R,0.0315X0.0315*%
%ADD12C,0.0138*%
%ADD13R,0.0354X0.0276*%
%ADD14R,0.0276X0.0354*%
%ADD15C,0.0278*%
%ADD16R,0.0591X0.0591*%
%ADD17C,0.0475*%
%ADD18C,0.0100*%
%ADD19C,0.0079*%
%ADD20C,0.0040*%
%ADD21C,0.0396*%
%ADD22C,0.0560*%
%ADD23C,0.0118*%
%ADD24C,0.0120*%
%ADD25C,0.0160*%
%ADD26R,0.1502X0.1502*%
D10*
X015794Y015869D03*
X016197Y015869D03*
X016591Y015869D03*
X016994Y015869D03*
X016994Y016282D03*
X016994Y016656D03*
X016591Y016656D03*
X016591Y016282D03*
X016197Y016282D03*
X016197Y016656D03*
X015794Y016656D03*
X015794Y016282D03*
X015794Y017069D03*
X016197Y017069D03*
X016591Y017069D03*
X016994Y017069D03*
D11*
X011725Y003205D03*
X011725Y002615D03*
X011725Y001433D03*
X011725Y000843D03*
D12*
X010971Y000894D03*
X010971Y001134D03*
X010971Y001374D03*
X010589Y001374D03*
X010589Y001134D03*
X010589Y000894D03*
X010589Y002666D03*
X010589Y002906D03*
X010589Y003146D03*
X010971Y003146D03*
X010971Y002906D03*
X010971Y002666D03*
D13*
X009796Y002906D03*
X009796Y003418D03*
X009784Y001138D03*
X009784Y000626D03*
X012945Y000886D03*
X012945Y001398D03*
X012945Y002654D03*
X012945Y003166D03*
D14*
X010248Y004272D03*
X009737Y004272D03*
X009855Y001910D03*
X009343Y001910D03*
D15*
X008910Y002467D03*
X010089Y002451D03*
X010583Y002319D03*
X011073Y002126D03*
X011723Y002057D03*
X012284Y002048D03*
X012158Y003697D03*
X011073Y003843D03*
X010101Y003859D03*
X010089Y005020D03*
X011073Y005020D03*
X012057Y005020D03*
X013465Y004016D03*
X010583Y000548D03*
X008910Y003845D03*
X008910Y005026D03*
X009512Y008701D03*
X010191Y009404D03*
X008617Y009404D03*
X009512Y011122D03*
X010780Y013142D03*
X011520Y013536D03*
X011758Y012554D03*
X011766Y011565D03*
X013290Y011557D03*
X013930Y012158D03*
X014520Y012748D03*
X015313Y013526D03*
X015205Y013969D03*
X014882Y014252D03*
X015552Y014760D03*
X014804Y015512D03*
X013496Y015981D03*
X013087Y015985D03*
X013264Y016622D03*
X012477Y016819D03*
X011855Y017556D03*
X011477Y018122D03*
X010650Y018095D03*
X010189Y017095D03*
X010187Y016487D03*
X010575Y015111D03*
X010575Y014717D03*
X008811Y013536D03*
X008731Y014321D03*
X006449Y016489D03*
X006248Y017922D03*
X006250Y018650D03*
X007040Y018650D03*
X007827Y018650D03*
X009441Y019437D03*
X009835Y019437D03*
X010229Y019437D03*
X009991Y020455D03*
X012156Y020424D03*
X013528Y018985D03*
X012581Y018119D03*
X012918Y017981D03*
X014394Y017650D03*
X015292Y017985D03*
X015593Y018278D03*
X015949Y018658D03*
X016103Y018150D03*
X016733Y018859D03*
X016093Y019243D03*
X015902Y020418D03*
X013928Y020420D03*
X017815Y017638D03*
X018087Y017008D03*
X018455Y017471D03*
X019370Y016898D03*
X019370Y016536D03*
X019378Y016181D03*
X019024Y015284D03*
X018111Y015378D03*
X017567Y015323D03*
X016780Y014772D03*
X018246Y013223D03*
X018849Y013227D03*
X019386Y013032D03*
X019386Y013426D03*
X019386Y013819D03*
X017288Y012674D03*
X016388Y011776D03*
X016390Y010937D03*
X015609Y010935D03*
X015609Y009951D03*
X014920Y009979D03*
X014235Y009987D03*
X013349Y009400D03*
X011766Y009404D03*
X013306Y012739D03*
X013050Y013896D03*
X012780Y014189D03*
X012943Y015306D03*
X018260Y019839D03*
X018256Y020418D03*
X022122Y020398D03*
X022122Y019414D03*
X022122Y021382D03*
X023500Y023154D03*
X025154Y022101D03*
X025150Y021607D03*
X025863Y022367D03*
X024288Y021382D03*
X024288Y019414D03*
X025863Y019414D03*
X016396Y009951D03*
X024756Y005465D03*
X005957Y014729D03*
X003894Y014721D03*
X003103Y014323D03*
X003894Y013737D03*
X002317Y015357D03*
X002317Y016056D03*
X002707Y016819D03*
X003957Y017044D03*
X004481Y017075D03*
X004282Y018642D03*
X004282Y020225D03*
D16*
X003304Y020524D03*
X002319Y020524D03*
D17*
X010780Y015898D03*
X011567Y015898D03*
X012355Y015898D03*
X011961Y016729D03*
X011174Y016725D03*
X016882Y023378D03*
X017670Y023378D03*
X018457Y023378D03*
X018063Y024205D03*
X017276Y024205D03*
D18*
X001678Y020669D02*
X001678Y000300D01*
X016489Y000300D01*
X016489Y008615D01*
X019496Y008615D01*
X019496Y017079D01*
X018654Y017079D01*
X018654Y020669D01*
X003699Y020669D01*
X003699Y020187D01*
X003640Y020129D01*
X002967Y020129D01*
X002908Y020187D01*
X002908Y020669D01*
X001678Y020669D01*
X001678Y020638D02*
X002908Y020638D01*
X002908Y020540D02*
X001678Y020540D01*
X001678Y020441D02*
X002908Y020441D01*
X002908Y020343D02*
X001678Y020343D01*
X001678Y020244D02*
X002908Y020244D01*
X002950Y020146D02*
X001678Y020146D01*
X001678Y020047D02*
X004875Y020047D01*
X004893Y020002D02*
X004835Y020144D01*
X004835Y020298D01*
X004893Y020440D01*
X005002Y020548D01*
X005144Y020607D01*
X005298Y020607D01*
X005440Y020548D01*
X005548Y020440D01*
X005607Y020298D01*
X005607Y020144D01*
X005548Y020002D01*
X005440Y019893D01*
X005298Y019835D01*
X005144Y019835D01*
X005002Y019893D01*
X004893Y020002D01*
X004947Y019949D02*
X001678Y019949D01*
X001678Y019850D02*
X005107Y019850D01*
X005335Y019850D02*
X006288Y019850D01*
X006325Y019835D02*
X006479Y019835D01*
X006621Y019893D01*
X006729Y020002D01*
X006788Y020144D01*
X006788Y020298D01*
X006729Y020440D01*
X006621Y020548D01*
X006479Y020607D01*
X006325Y020607D01*
X006183Y020548D01*
X006075Y020440D01*
X006016Y020298D01*
X006016Y020144D01*
X006075Y020002D01*
X006183Y019893D01*
X006325Y019835D01*
X006516Y019850D02*
X009657Y019850D01*
X009755Y019948D02*
X009483Y019676D01*
X009394Y019676D01*
X009306Y019640D01*
X009239Y019573D01*
X009202Y019485D01*
X009202Y019390D01*
X009239Y019302D01*
X009306Y019235D01*
X009394Y019198D01*
X009489Y019198D01*
X009577Y019235D01*
X009638Y019296D01*
X009700Y019235D01*
X009787Y019198D01*
X009883Y019198D01*
X009970Y019235D01*
X010032Y019296D01*
X010093Y019235D01*
X010181Y019198D01*
X010276Y019198D01*
X010364Y019235D01*
X010427Y019298D01*
X010514Y019298D01*
X012189Y017623D01*
X012189Y017608D01*
X012268Y017528D01*
X012094Y017528D01*
X012094Y017529D01*
X012094Y017603D01*
X012057Y017691D01*
X011990Y017758D01*
X011902Y017795D01*
X011807Y017795D01*
X011719Y017758D01*
X011652Y017691D01*
X011616Y017603D01*
X011616Y017508D01*
X011652Y017420D01*
X011719Y017353D01*
X011807Y017316D01*
X011882Y017316D01*
X011970Y017228D01*
X013399Y017228D01*
X013906Y016722D01*
X013906Y016177D01*
X013641Y016442D01*
X012150Y016442D01*
X012152Y016443D01*
X012247Y016538D01*
X012299Y016662D01*
X012299Y016796D01*
X012247Y016920D01*
X012152Y017015D01*
X012028Y017066D01*
X011894Y017066D01*
X011770Y017015D01*
X011675Y016920D01*
X011624Y016796D01*
X011624Y016662D01*
X011675Y016538D01*
X011770Y016443D01*
X011772Y016442D01*
X011111Y016442D01*
X011024Y016354D01*
X010888Y016218D01*
X010847Y016236D01*
X010713Y016236D01*
X010589Y016184D01*
X010494Y016089D01*
X010442Y015965D01*
X010442Y015831D01*
X010494Y015707D01*
X010589Y015612D01*
X010713Y015561D01*
X010847Y015561D01*
X010971Y015612D01*
X011066Y015707D01*
X011117Y015831D01*
X011117Y015965D01*
X011100Y016006D01*
X011236Y016142D01*
X011334Y016142D01*
X011281Y016089D01*
X011230Y015965D01*
X011230Y015831D01*
X011281Y015707D01*
X011376Y015612D01*
X011500Y015561D01*
X011634Y015561D01*
X011666Y015573D01*
X012195Y015044D01*
X012195Y004748D01*
X011210Y003764D01*
X011210Y003631D01*
X011220Y003621D01*
X011220Y002830D01*
X011206Y002816D01*
X011120Y002816D01*
X011140Y002836D01*
X011140Y002976D01*
X011125Y002991D01*
X011146Y003012D01*
X011175Y003062D01*
X011190Y003117D01*
X011190Y003146D01*
X010971Y003146D01*
X010971Y003146D01*
X011190Y003146D01*
X011190Y003175D01*
X011175Y003231D01*
X011146Y003280D01*
X011105Y003321D01*
X011055Y003350D01*
X011000Y003365D01*
X010971Y003365D01*
X010971Y003146D01*
X010971Y003146D01*
X010971Y003365D01*
X010942Y003365D01*
X010886Y003350D01*
X010836Y003321D01*
X010796Y003280D01*
X010767Y003231D01*
X010758Y003197D01*
X010758Y003216D01*
X010739Y003235D01*
X010739Y003994D01*
X010651Y004081D01*
X010486Y004246D01*
X010486Y004491D01*
X010428Y004549D01*
X010069Y004549D01*
X010011Y004491D01*
X010011Y004053D01*
X010069Y003995D01*
X010313Y003995D01*
X010439Y003869D01*
X010439Y003235D01*
X010420Y003216D01*
X010420Y003076D01*
X010440Y003056D01*
X010073Y003056D01*
X010073Y003085D01*
X010021Y003137D01*
X010031Y003140D01*
X010065Y003160D01*
X010093Y003188D01*
X010113Y003222D01*
X010123Y003260D01*
X010123Y003399D01*
X009815Y003399D01*
X009815Y003437D01*
X009777Y003437D01*
X009777Y003706D01*
X009599Y003706D01*
X009561Y003695D01*
X009526Y003676D01*
X009498Y003648D01*
X009493Y003638D01*
X009493Y004122D01*
X009499Y004122D01*
X009499Y004053D01*
X009557Y003995D01*
X009916Y003995D01*
X009974Y004053D01*
X009974Y004491D01*
X009916Y004549D01*
X009557Y004549D01*
X009499Y004491D01*
X009499Y004422D01*
X009489Y004422D01*
X009489Y004966D01*
X010842Y006319D01*
X010930Y006407D01*
X010930Y012954D01*
X010983Y013007D01*
X011019Y013095D01*
X011019Y013190D01*
X010983Y013278D01*
X010915Y013345D01*
X010827Y013381D01*
X010732Y013381D01*
X010645Y013345D01*
X010577Y013278D01*
X010541Y013190D01*
X010541Y013095D01*
X010577Y013007D01*
X010630Y012954D01*
X010630Y006531D01*
X009277Y005178D01*
X009189Y005090D01*
X009189Y004230D01*
X009193Y004226D01*
X009193Y002187D01*
X009164Y002187D01*
X009105Y002128D01*
X009105Y001691D01*
X009164Y001633D01*
X009193Y001633D01*
X009193Y001517D01*
X009507Y001203D01*
X009507Y000959D01*
X009559Y000907D01*
X009549Y000904D01*
X009515Y000884D01*
X009487Y000856D01*
X009467Y000822D01*
X009457Y000784D01*
X009457Y000645D01*
X009765Y000645D01*
X009765Y000607D01*
X009803Y000607D01*
X009803Y000339D01*
X009981Y000339D01*
X010019Y000349D01*
X010053Y000369D01*
X010081Y000396D01*
X010101Y000431D01*
X010111Y000469D01*
X010111Y000607D01*
X009803Y000607D01*
X009803Y000645D01*
X010111Y000645D01*
X010111Y000784D01*
X010101Y000822D01*
X010081Y000856D01*
X010053Y000884D01*
X010019Y000904D01*
X010009Y000907D01*
X010061Y000959D01*
X010061Y000988D01*
X010444Y000988D01*
X010420Y000964D01*
X010420Y000824D01*
X010439Y000805D01*
X010439Y000742D01*
X010380Y000683D01*
X010344Y000595D01*
X010344Y000500D01*
X010380Y000412D01*
X010448Y000345D01*
X010536Y000309D01*
X010631Y000309D01*
X010718Y000345D01*
X010786Y000412D01*
X010822Y000500D01*
X010822Y000595D01*
X010786Y000683D01*
X010739Y000730D01*
X010739Y000805D01*
X010758Y000824D01*
X010758Y000964D01*
X010708Y001014D01*
X010758Y001064D01*
X010758Y001204D01*
X010708Y001254D01*
X010758Y001304D01*
X010758Y001324D01*
X010767Y001290D01*
X010796Y001240D01*
X010817Y001219D01*
X010802Y001204D01*
X010802Y001064D01*
X010852Y001014D01*
X010802Y000964D01*
X010802Y000824D01*
X010901Y000725D01*
X011041Y000725D01*
X011060Y000744D01*
X011189Y000744D01*
X011433Y000988D01*
X011467Y001023D01*
X011467Y000644D01*
X011526Y000585D01*
X011924Y000585D01*
X011982Y000644D01*
X011982Y000736D01*
X012668Y000736D01*
X012668Y000707D01*
X012727Y000648D01*
X013164Y000648D01*
X013222Y000707D01*
X013222Y001065D01*
X013164Y001124D01*
X012727Y001124D01*
X012668Y001065D01*
X012668Y001036D01*
X011982Y001036D01*
X011982Y001042D01*
X011924Y001100D01*
X011526Y001100D01*
X011520Y001095D01*
X011520Y001133D01*
X011548Y001126D01*
X011696Y001126D01*
X011696Y001405D01*
X011754Y001405D01*
X011754Y001462D01*
X012032Y001462D01*
X012032Y001611D01*
X012022Y001649D01*
X012002Y001683D01*
X011974Y001711D01*
X011940Y001731D01*
X011902Y001741D01*
X011754Y001741D01*
X011754Y001462D01*
X011696Y001462D01*
X011696Y001741D01*
X011548Y001741D01*
X011520Y001734D01*
X011520Y002314D01*
X011548Y002307D01*
X011696Y002307D01*
X011696Y002586D01*
X011754Y002586D01*
X011754Y002643D01*
X012032Y002643D01*
X012032Y002792D01*
X012022Y002830D01*
X012002Y002864D01*
X011974Y002892D01*
X011940Y002912D01*
X011902Y002922D01*
X011754Y002922D01*
X011754Y002643D01*
X011696Y002643D01*
X011696Y002922D01*
X011548Y002922D01*
X011520Y002915D01*
X011520Y002953D01*
X011526Y002948D01*
X011924Y002948D01*
X011982Y003006D01*
X011982Y003016D01*
X012668Y003016D01*
X012668Y002987D01*
X012727Y002928D01*
X013164Y002928D01*
X013222Y002987D01*
X013222Y003345D01*
X013164Y003404D01*
X012727Y003404D01*
X012668Y003345D01*
X012668Y003316D01*
X011982Y003316D01*
X011982Y003404D01*
X011924Y003463D01*
X011526Y003463D01*
X011520Y003457D01*
X011520Y003621D01*
X012421Y004521D01*
X012515Y004615D01*
X012515Y015177D01*
X011892Y015800D01*
X011905Y015831D01*
X011905Y015965D01*
X011853Y016089D01*
X011801Y016142D01*
X012121Y016142D01*
X012069Y016089D01*
X012017Y015965D01*
X012017Y015831D01*
X012069Y015707D01*
X012164Y015612D01*
X012288Y015561D01*
X012422Y015561D01*
X012546Y015612D01*
X012641Y015707D01*
X012692Y015831D01*
X012692Y015965D01*
X012641Y016089D01*
X012588Y016142D01*
X012906Y016142D01*
X012884Y016120D01*
X012848Y016032D01*
X012848Y015937D01*
X012884Y015849D01*
X012952Y015782D01*
X013039Y015746D01*
X013114Y015746D01*
X013118Y015741D01*
X013118Y014568D01*
X013206Y014480D01*
X015157Y012529D01*
X015157Y009072D01*
X015139Y009064D01*
X015055Y008980D01*
X015009Y008871D01*
X015009Y008752D01*
X015055Y008643D01*
X015139Y008559D01*
X015248Y008513D01*
X015367Y008513D01*
X015476Y008559D01*
X015560Y008643D01*
X015602Y008743D01*
X015645Y008639D01*
X015729Y008555D01*
X015839Y008509D01*
X015957Y008509D01*
X016067Y008555D01*
X016151Y008639D01*
X016196Y008748D01*
X016196Y008867D01*
X016151Y008976D01*
X016067Y009060D01*
X016056Y009065D01*
X016056Y012401D01*
X015968Y012489D01*
X013646Y014811D01*
X013646Y015793D01*
X013693Y015839D01*
X013693Y014800D01*
X013781Y014713D01*
X014674Y013819D01*
X015017Y013819D01*
X015070Y013766D01*
X015158Y013730D01*
X015253Y013730D01*
X015341Y013766D01*
X015408Y013833D01*
X015444Y013921D01*
X015444Y013943D01*
X016863Y012524D01*
X017100Y012524D01*
X017152Y012471D01*
X017240Y012435D01*
X017335Y012435D01*
X017423Y012471D01*
X017490Y012538D01*
X017527Y012626D01*
X017527Y012721D01*
X017490Y012809D01*
X017423Y012876D01*
X017335Y012913D01*
X017240Y012913D01*
X017152Y012876D01*
X017100Y012824D01*
X016988Y012824D01*
X015201Y014610D01*
X015364Y014610D01*
X015416Y014558D01*
X015504Y014521D01*
X015599Y014521D01*
X015687Y014558D01*
X015754Y014625D01*
X015791Y014713D01*
X015791Y014808D01*
X015754Y014896D01*
X015687Y014963D01*
X015599Y014999D01*
X015504Y014999D01*
X015416Y014963D01*
X015364Y014910D01*
X015212Y014910D01*
X014946Y015176D01*
X015361Y015176D01*
X015371Y015165D01*
X017387Y015165D01*
X017432Y015121D01*
X017520Y015084D01*
X017609Y015084D01*
X017633Y015061D01*
X017714Y014979D01*
X018916Y014979D01*
X018982Y015045D01*
X019072Y015045D01*
X019159Y015081D01*
X019227Y015148D01*
X019263Y015236D01*
X019263Y015331D01*
X019227Y015419D01*
X019159Y015487D01*
X019072Y015523D01*
X018976Y015523D01*
X018889Y015487D01*
X018821Y015419D01*
X018785Y015331D01*
X018785Y015258D01*
X017830Y015258D01*
X017806Y015281D01*
X017806Y015371D01*
X017770Y015459D01*
X017703Y015526D01*
X017615Y015562D01*
X017520Y015562D01*
X017432Y015526D01*
X017371Y015465D01*
X015371Y015465D01*
X015361Y015455D01*
X015058Y015455D01*
X015043Y015470D01*
X015043Y015560D01*
X015006Y015648D01*
X014954Y015700D01*
X014954Y017434D01*
X015218Y017699D01*
X017543Y017699D01*
X017576Y017665D01*
X017576Y017591D01*
X017613Y017503D01*
X017680Y017436D01*
X017768Y017399D01*
X017863Y017399D01*
X017951Y017436D01*
X018018Y017503D01*
X018054Y017591D01*
X018054Y017686D01*
X018018Y017774D01*
X017951Y017841D01*
X017863Y017877D01*
X017788Y017877D01*
X017759Y017907D01*
X017759Y017911D01*
X017671Y017999D01*
X016654Y017999D01*
X016883Y018228D01*
X016883Y018671D01*
X016935Y018723D01*
X016972Y018811D01*
X016972Y018906D01*
X016935Y018994D01*
X016868Y019061D01*
X016780Y019098D01*
X016685Y019098D01*
X016597Y019061D01*
X016530Y018994D01*
X016494Y018906D01*
X016494Y018811D01*
X016530Y018723D01*
X016583Y018671D01*
X016583Y018352D01*
X016342Y018111D01*
X016342Y018198D01*
X016305Y018285D01*
X016238Y018353D01*
X016150Y018389D01*
X016061Y018389D01*
X016021Y018429D01*
X016085Y018455D01*
X016152Y018522D01*
X016188Y018610D01*
X016188Y018705D01*
X016152Y018793D01*
X016085Y018861D01*
X015997Y018897D01*
X015907Y018897D01*
X014775Y020030D01*
X009836Y020030D01*
X009755Y019948D01*
X009755Y019949D02*
X006676Y019949D01*
X006748Y020047D02*
X018654Y020047D01*
X018654Y019949D02*
X014856Y019949D01*
X014954Y019850D02*
X018654Y019850D01*
X018654Y019752D02*
X015053Y019752D01*
X015151Y019653D02*
X018654Y019653D01*
X018654Y019555D02*
X015250Y019555D01*
X015348Y019456D02*
X018654Y019456D01*
X018654Y019358D02*
X015447Y019358D01*
X015545Y019259D02*
X018654Y019259D01*
X018654Y019161D02*
X015644Y019161D01*
X015742Y019062D02*
X016599Y019062D01*
X016517Y018964D02*
X015841Y018964D01*
X016074Y018865D02*
X016494Y018865D01*
X016512Y018767D02*
X016163Y018767D01*
X016188Y018668D02*
X016583Y018668D01*
X016583Y018570D02*
X016171Y018570D01*
X016100Y018471D02*
X016583Y018471D01*
X016583Y018373D02*
X016190Y018373D01*
X016310Y018274D02*
X016505Y018274D01*
X016406Y018176D02*
X016342Y018176D01*
X016292Y017849D02*
X016733Y018290D01*
X016733Y018859D01*
X016972Y018865D02*
X018654Y018865D01*
X018654Y018767D02*
X016953Y018767D01*
X016883Y018668D02*
X018654Y018668D01*
X018654Y018570D02*
X016883Y018570D01*
X016883Y018471D02*
X018654Y018471D01*
X018654Y018373D02*
X016883Y018373D01*
X016883Y018274D02*
X018654Y018274D01*
X018654Y018176D02*
X016831Y018176D01*
X016732Y018077D02*
X018654Y018077D01*
X018654Y017979D02*
X017691Y017979D01*
X017786Y017880D02*
X018654Y017880D01*
X018654Y017782D02*
X018010Y017782D01*
X018054Y017683D02*
X018654Y017683D01*
X018654Y017585D02*
X018052Y017585D01*
X018001Y017486D02*
X018654Y017486D01*
X018654Y017388D02*
X017321Y017388D01*
X017331Y017378D02*
X017303Y017406D01*
X017269Y017426D01*
X017231Y017436D01*
X016994Y017436D01*
X016591Y017436D01*
X016591Y017069D01*
X016591Y016656D01*
X016591Y016656D01*
X016994Y016656D01*
X016994Y016656D01*
X016628Y016656D01*
X016591Y016656D01*
X016591Y016656D01*
X016591Y017022D01*
X016591Y017069D01*
X016591Y017069D01*
X016591Y017069D01*
X016628Y017069D01*
X016994Y017069D01*
X016994Y017069D01*
X016994Y017069D01*
X016994Y017022D01*
X016994Y016656D01*
X016994Y016656D01*
X016994Y016656D01*
X016994Y016289D01*
X016994Y016282D01*
X016994Y016282D01*
X016591Y016282D01*
X016591Y016282D01*
X016591Y016656D01*
X016591Y016656D01*
X016197Y016656D01*
X016197Y016656D01*
X015794Y016656D01*
X015794Y016656D01*
X015831Y016656D01*
X016197Y016656D01*
X016197Y016703D01*
X016197Y017069D01*
X016197Y017069D01*
X015831Y017069D01*
X015794Y017069D01*
X015794Y017069D01*
X015794Y016656D01*
X015794Y016656D01*
X015794Y016282D01*
X016197Y016282D01*
X016197Y016282D01*
X016197Y016289D01*
X016197Y016656D01*
X016197Y016656D01*
X016197Y016656D01*
X016197Y017069D01*
X016197Y017069D01*
X015794Y017069D01*
X015794Y017069D01*
X015794Y016703D01*
X015794Y016656D01*
X015794Y016656D01*
X015794Y016656D01*
X015427Y016656D01*
X015427Y017069D01*
X015794Y017069D01*
X015794Y017069D01*
X015794Y017069D01*
X015794Y017436D01*
X016197Y017436D01*
X016197Y017069D01*
X016197Y017069D01*
X016224Y017069D01*
X016591Y017069D01*
X016591Y017069D01*
X016994Y017069D01*
X016994Y016656D01*
X016994Y016282D01*
X016628Y016282D01*
X016591Y016282D01*
X016591Y016282D01*
X016591Y016289D01*
X016591Y016656D01*
X016591Y016656D01*
X016224Y016656D01*
X016197Y016656D01*
X016197Y016282D01*
X016197Y016282D01*
X016160Y016282D01*
X015794Y016282D01*
X015794Y016282D01*
X015794Y016282D01*
X015794Y015869D01*
X015794Y015869D01*
X016197Y015869D01*
X016197Y016235D01*
X016197Y016282D01*
X016197Y016282D01*
X016591Y016282D01*
X016591Y016282D01*
X016591Y015869D01*
X016591Y015869D01*
X016591Y016235D01*
X016591Y016282D01*
X016591Y016282D01*
X016224Y016282D01*
X016197Y016282D01*
X016197Y016282D01*
X016197Y015869D01*
X016197Y015869D01*
X016197Y015868D01*
X016197Y015868D01*
X016197Y015502D01*
X015961Y015502D01*
X015794Y015502D01*
X015794Y015868D01*
X015794Y015868D01*
X015794Y015869D01*
X015794Y015915D01*
X015794Y016282D01*
X015794Y016282D01*
X015794Y016648D01*
X015794Y016656D01*
X015427Y016656D01*
X015427Y016282D01*
X015794Y016282D01*
X015794Y016282D01*
X015427Y016282D01*
X015427Y015869D01*
X015794Y015869D01*
X015794Y015868D02*
X015831Y015868D01*
X016197Y015868D01*
X016197Y015502D01*
X016355Y015502D01*
X016591Y015502D01*
X016758Y015502D01*
X016994Y015502D01*
X016994Y015868D01*
X016994Y015868D01*
X016628Y015868D01*
X016591Y015868D01*
X016591Y015502D01*
X016591Y015868D01*
X016591Y015868D01*
X016591Y015869D01*
X016994Y015869D01*
X016994Y016235D01*
X016994Y016282D01*
X016994Y016282D01*
X016994Y016282D01*
X016994Y015869D01*
X016994Y015869D01*
X016994Y015868D01*
X016994Y015502D01*
X017231Y015502D01*
X017269Y015512D01*
X017303Y015532D01*
X017331Y015560D01*
X017351Y015594D01*
X017361Y015632D01*
X017361Y015868D01*
X016995Y015868D01*
X016995Y015869D01*
X017361Y015869D01*
X017361Y016282D01*
X017361Y016656D01*
X017361Y017069D01*
X016995Y017069D01*
X016995Y017069D01*
X017361Y017069D01*
X017361Y017306D01*
X017351Y017344D01*
X017331Y017378D01*
X017361Y017289D02*
X018654Y017289D01*
X018654Y017191D02*
X017361Y017191D01*
X017361Y017092D02*
X018654Y017092D01*
X017815Y017638D02*
X017609Y017845D01*
X017609Y017849D01*
X016292Y017849D01*
X015156Y017849D01*
X015292Y017985D01*
X015156Y017849D02*
X014804Y017496D01*
X014804Y015512D01*
X015043Y015516D02*
X015513Y015516D01*
X015519Y015512D02*
X015557Y015502D01*
X015794Y015502D01*
X015794Y015868D01*
X015427Y015868D01*
X015427Y015632D01*
X015437Y015594D01*
X015457Y015560D01*
X015485Y015532D01*
X015519Y015512D01*
X015432Y015615D02*
X015020Y015615D01*
X014954Y015713D02*
X015427Y015713D01*
X015427Y015812D02*
X014954Y015812D01*
X014954Y015910D02*
X015427Y015910D01*
X015427Y016009D02*
X014954Y016009D01*
X014954Y016107D02*
X015427Y016107D01*
X015427Y016206D02*
X014954Y016206D01*
X014954Y016304D02*
X015427Y016304D01*
X015427Y016403D02*
X014954Y016403D01*
X014954Y016501D02*
X015427Y016501D01*
X015427Y016600D02*
X014954Y016600D01*
X014954Y016698D02*
X015427Y016698D01*
X015427Y016797D02*
X014954Y016797D01*
X014954Y016895D02*
X015427Y016895D01*
X015427Y016994D02*
X014954Y016994D01*
X014954Y017092D02*
X015427Y017092D01*
X015427Y017069D02*
X015794Y017069D01*
X015794Y017436D01*
X015557Y017436D01*
X015519Y017426D01*
X015485Y017406D01*
X015457Y017378D01*
X015437Y017344D01*
X015427Y017306D01*
X015427Y017069D01*
X015427Y017191D02*
X014954Y017191D01*
X014954Y017289D02*
X015427Y017289D01*
X015467Y017388D02*
X014954Y017388D01*
X015005Y017486D02*
X017629Y017486D01*
X017579Y017585D02*
X015104Y017585D01*
X015202Y017683D02*
X017558Y017683D01*
X016994Y017436D02*
X016994Y017069D01*
X016994Y017436D01*
X016994Y017388D02*
X016994Y017388D01*
X016994Y017289D02*
X016994Y017289D01*
X016994Y017191D02*
X016994Y017191D01*
X016994Y017092D02*
X016994Y017092D01*
X016994Y017069D02*
X016994Y017069D01*
X016994Y016994D02*
X016994Y016994D01*
X016994Y016895D02*
X016994Y016895D01*
X016994Y016797D02*
X016994Y016797D01*
X016994Y016698D02*
X016994Y016698D01*
X016995Y016656D02*
X017361Y016656D01*
X016995Y016656D01*
X016995Y016656D01*
X016994Y016600D02*
X016994Y016600D01*
X016994Y016501D02*
X016994Y016501D01*
X016994Y016403D02*
X016994Y016403D01*
X016994Y016304D02*
X016994Y016304D01*
X016995Y016282D02*
X017361Y016282D01*
X016995Y016282D01*
X016995Y016282D01*
X016994Y016206D02*
X016994Y016206D01*
X016994Y016107D02*
X016994Y016107D01*
X016994Y016009D02*
X016994Y016009D01*
X016994Y015910D02*
X016994Y015910D01*
X016994Y015812D02*
X016994Y015812D01*
X016994Y015713D02*
X016994Y015713D01*
X016994Y015615D02*
X016994Y015615D01*
X016994Y015516D02*
X016994Y015516D01*
X017115Y015315D02*
X017559Y015315D01*
X017430Y015122D02*
X015000Y015122D01*
X015099Y015024D02*
X017670Y015024D01*
X017806Y015319D02*
X018785Y015319D01*
X018821Y015418D02*
X017787Y015418D01*
X017713Y015516D02*
X018960Y015516D01*
X019088Y015516D02*
X019496Y015516D01*
X019496Y015418D02*
X019227Y015418D01*
X019263Y015319D02*
X019496Y015319D01*
X019496Y015221D02*
X019257Y015221D01*
X019200Y015122D02*
X019496Y015122D01*
X019496Y015024D02*
X018961Y015024D01*
X019496Y014925D02*
X015725Y014925D01*
X015783Y014827D02*
X019496Y014827D01*
X019496Y014728D02*
X015791Y014728D01*
X015756Y014630D02*
X019496Y014630D01*
X019496Y014531D02*
X015623Y014531D01*
X015480Y014531D02*
X015280Y014531D01*
X015379Y014433D02*
X019496Y014433D01*
X019496Y014334D02*
X015477Y014334D01*
X015576Y014236D02*
X019496Y014236D01*
X019496Y014137D02*
X015674Y014137D01*
X015773Y014039D02*
X019496Y014039D01*
X019496Y013940D02*
X015871Y013940D01*
X015970Y013842D02*
X019496Y013842D01*
X019496Y013743D02*
X016068Y013743D01*
X016167Y013645D02*
X019496Y013645D01*
X019496Y013546D02*
X016265Y013546D01*
X016364Y013448D02*
X019496Y013448D01*
X019496Y013349D02*
X016462Y013349D01*
X016561Y013251D02*
X019496Y013251D01*
X019496Y013152D02*
X016659Y013152D01*
X016758Y013054D02*
X019496Y013054D01*
X019496Y012955D02*
X016856Y012955D01*
X016955Y012857D02*
X017133Y012857D01*
X017288Y012674D02*
X016926Y012674D01*
X014272Y015327D01*
X014272Y016910D01*
X013512Y017670D01*
X012339Y017670D01*
X012212Y017585D02*
X012094Y017585D01*
X012061Y017683D02*
X012129Y017683D01*
X012030Y017782D02*
X011934Y017782D01*
X011932Y017880D02*
X006487Y017880D01*
X006487Y017874D02*
X006451Y017786D01*
X006384Y017719D01*
X006296Y017683D01*
X006201Y017683D01*
X006113Y017719D01*
X006069Y017763D01*
X004398Y017763D01*
X004343Y017757D01*
X004241Y017715D01*
X004164Y017637D01*
X004122Y017536D01*
X004116Y017481D01*
X004116Y017223D01*
X004160Y017179D01*
X004196Y017091D01*
X004196Y016996D01*
X004160Y016908D01*
X004093Y016841D01*
X004005Y016805D01*
X003910Y016805D01*
X003822Y016841D01*
X003754Y016908D01*
X003718Y016996D01*
X003718Y017091D01*
X003754Y017179D01*
X003798Y017223D01*
X003798Y017600D01*
X003889Y017821D01*
X003889Y017821D01*
X004058Y017989D01*
X004058Y017989D01*
X004279Y018081D01*
X006069Y018081D01*
X006113Y018124D01*
X006201Y018161D01*
X006296Y018161D01*
X006384Y018124D01*
X006451Y018057D01*
X006487Y017969D01*
X006487Y017874D01*
X006446Y017782D02*
X011776Y017782D01*
X011649Y017683D02*
X006297Y017683D01*
X006200Y017683D02*
X004209Y017683D01*
X004142Y017585D02*
X011616Y017585D01*
X011625Y017486D02*
X004117Y017486D01*
X004116Y017388D02*
X011685Y017388D01*
X011855Y017556D02*
X012032Y017378D01*
X013461Y017378D01*
X014056Y016784D01*
X014056Y015079D01*
X014882Y014252D01*
X014737Y013969D02*
X013843Y014863D01*
X013843Y016028D01*
X013579Y016292D01*
X011174Y016292D01*
X010780Y015898D01*
X011117Y015910D02*
X011230Y015910D01*
X011238Y015812D02*
X011109Y015812D01*
X011069Y015713D02*
X011279Y015713D01*
X011374Y015615D02*
X010974Y015615D01*
X010586Y015615D02*
X009571Y015615D01*
X009585Y015580D02*
X009527Y015720D01*
X009420Y015826D01*
X009281Y015884D01*
X009130Y015884D01*
X008990Y015826D01*
X008883Y015720D01*
X008825Y015580D01*
X008825Y015429D01*
X008883Y015289D01*
X008990Y015182D01*
X009130Y015124D01*
X009281Y015124D01*
X009420Y015182D01*
X009527Y015289D01*
X009585Y015429D01*
X009585Y015580D01*
X009585Y015516D02*
X011723Y015516D01*
X011822Y015418D02*
X009580Y015418D01*
X009540Y015319D02*
X011920Y015319D01*
X012019Y015221D02*
X009459Y015221D01*
X009420Y015039D02*
X009281Y015097D01*
X009130Y015097D01*
X008990Y015039D01*
X008883Y014932D01*
X008825Y014793D01*
X008825Y014641D01*
X008883Y014502D01*
X008990Y014395D01*
X009130Y014337D01*
X009281Y014337D01*
X009420Y014395D01*
X009527Y014502D01*
X009585Y014641D01*
X009585Y014793D01*
X009527Y014932D01*
X009420Y015039D01*
X009436Y015024D02*
X012195Y015024D01*
X012195Y014925D02*
X009530Y014925D01*
X009571Y014827D02*
X012195Y014827D01*
X012195Y014728D02*
X009585Y014728D01*
X009580Y014630D02*
X012195Y014630D01*
X012195Y014531D02*
X009539Y014531D01*
X009458Y014433D02*
X012195Y014433D01*
X012195Y014334D02*
X004492Y014334D01*
X004590Y014433D02*
X007968Y014433D01*
X008006Y014395D02*
X008145Y014337D01*
X008296Y014337D01*
X008436Y014395D01*
X008543Y014502D01*
X008601Y014641D01*
X008601Y014793D01*
X008543Y014932D01*
X008436Y015039D01*
X008296Y015097D01*
X008145Y015097D01*
X008006Y015039D01*
X007899Y014932D01*
X007841Y014793D01*
X007841Y014641D01*
X007899Y014502D01*
X008006Y014395D01*
X007887Y014531D02*
X004689Y014531D01*
X004787Y014630D02*
X007846Y014630D01*
X007841Y014728D02*
X004886Y014728D01*
X004984Y014827D02*
X007855Y014827D01*
X007896Y014925D02*
X005083Y014925D01*
X005181Y015024D02*
X007990Y015024D01*
X008006Y015182D02*
X008145Y015124D01*
X008296Y015124D01*
X008436Y015182D01*
X008543Y015289D01*
X008601Y015429D01*
X008601Y015580D01*
X008543Y015720D01*
X008436Y015826D01*
X008296Y015884D01*
X008145Y015884D01*
X008006Y015826D01*
X007899Y015720D01*
X007841Y015580D01*
X007841Y015429D01*
X007899Y015289D01*
X008006Y015182D01*
X007967Y015221D02*
X005378Y015221D01*
X005477Y015319D02*
X007886Y015319D01*
X007846Y015418D02*
X005575Y015418D01*
X005674Y015516D02*
X007841Y015516D01*
X007855Y015615D02*
X005772Y015615D01*
X005871Y015713D02*
X007896Y015713D01*
X007991Y015812D02*
X005969Y015812D01*
X006068Y015910D02*
X010442Y015910D01*
X010450Y015812D02*
X009435Y015812D01*
X009530Y015713D02*
X010491Y015713D01*
X010460Y016009D02*
X009459Y016009D01*
X009420Y015970D02*
X009527Y016076D01*
X009585Y016216D01*
X009585Y016367D01*
X009527Y016507D01*
X009420Y016614D01*
X009281Y016672D01*
X009130Y016672D01*
X008990Y016614D01*
X008883Y016507D01*
X008825Y016367D01*
X008825Y016216D01*
X008883Y016076D01*
X008990Y015970D01*
X009130Y015912D01*
X009281Y015912D01*
X009420Y015970D01*
X009540Y016107D02*
X010512Y016107D01*
X010640Y016206D02*
X009581Y016206D01*
X009585Y016304D02*
X010974Y016304D01*
X011072Y016403D02*
X009571Y016403D01*
X009530Y016501D02*
X011711Y016501D01*
X011649Y016600D02*
X009435Y016600D01*
X008976Y016600D02*
X008450Y016600D01*
X008436Y016614D02*
X008296Y016672D01*
X008145Y016672D01*
X008006Y016614D01*
X007899Y016507D01*
X007841Y016367D01*
X007841Y016216D01*
X007899Y016076D01*
X008006Y015970D01*
X008145Y015912D01*
X008296Y015912D01*
X008436Y015970D01*
X008543Y016076D01*
X008601Y016216D01*
X008601Y016367D01*
X008543Y016507D01*
X008436Y016614D01*
X008545Y016501D02*
X008881Y016501D01*
X008840Y016403D02*
X008586Y016403D01*
X008601Y016304D02*
X008825Y016304D01*
X008830Y016206D02*
X008596Y016206D01*
X008556Y016107D02*
X008870Y016107D01*
X008951Y016009D02*
X008475Y016009D01*
X008451Y015812D02*
X008975Y015812D01*
X008880Y015713D02*
X008546Y015713D01*
X008587Y015615D02*
X008839Y015615D01*
X008825Y015516D02*
X008601Y015516D01*
X008596Y015418D02*
X008830Y015418D01*
X008871Y015319D02*
X008555Y015319D01*
X008474Y015221D02*
X008952Y015221D01*
X008974Y015024D02*
X008452Y015024D01*
X008546Y014925D02*
X008880Y014925D01*
X008839Y014827D02*
X008587Y014827D01*
X008601Y014728D02*
X008825Y014728D01*
X008830Y014630D02*
X008596Y014630D01*
X008555Y014531D02*
X008871Y014531D01*
X008952Y014433D02*
X008474Y014433D01*
X008764Y013775D02*
X008676Y013738D01*
X008609Y013671D01*
X008572Y013583D01*
X008572Y013488D01*
X008609Y013400D01*
X008676Y013333D01*
X008764Y013297D01*
X008859Y013297D01*
X008947Y013333D01*
X008999Y013386D01*
X011332Y013386D01*
X011385Y013333D01*
X011473Y013297D01*
X011568Y013297D01*
X011655Y013333D01*
X011723Y013400D01*
X011759Y013488D01*
X011759Y013583D01*
X011723Y013671D01*
X011655Y013738D01*
X011568Y013775D01*
X011473Y013775D01*
X011385Y013738D01*
X011332Y013686D01*
X008999Y013686D01*
X008947Y013738D01*
X008859Y013775D01*
X008764Y013775D01*
X008687Y013743D02*
X001678Y013743D01*
X001678Y013645D02*
X008598Y013645D01*
X008572Y013546D02*
X001678Y013546D01*
X001678Y013448D02*
X008589Y013448D01*
X008660Y013349D02*
X001678Y013349D01*
X001678Y013251D02*
X010566Y013251D01*
X010541Y013152D02*
X001678Y013152D01*
X001678Y013054D02*
X010558Y013054D01*
X010629Y012955D02*
X001678Y012955D01*
X001678Y012857D02*
X010630Y012857D01*
X010630Y012758D02*
X001678Y012758D01*
X001678Y012660D02*
X010630Y012660D01*
X010630Y012561D02*
X001678Y012561D01*
X001678Y012463D02*
X010630Y012463D01*
X010630Y012364D02*
X001678Y012364D01*
X001678Y012266D02*
X010630Y012266D01*
X010630Y012167D02*
X001678Y012167D01*
X001678Y012069D02*
X010630Y012069D01*
X010630Y011970D02*
X001678Y011970D01*
X001678Y011872D02*
X010630Y011872D01*
X010630Y011773D02*
X001678Y011773D01*
X001678Y011675D02*
X010630Y011675D01*
X010630Y011576D02*
X001678Y011576D01*
X001678Y011478D02*
X010630Y011478D01*
X010630Y011379D02*
X001678Y011379D01*
X001678Y011281D02*
X009332Y011281D01*
X009310Y011258D02*
X009273Y011170D01*
X009273Y011075D01*
X009310Y010987D01*
X009362Y010934D01*
X009362Y008889D01*
X009310Y008837D01*
X009273Y008749D01*
X009273Y008654D01*
X009310Y008566D01*
X009377Y008499D01*
X009465Y008462D01*
X009560Y008462D01*
X009648Y008499D01*
X009715Y008566D01*
X009751Y008654D01*
X009751Y008749D01*
X009715Y008837D01*
X009662Y008889D01*
X009662Y010934D01*
X009715Y010987D01*
X009751Y011075D01*
X009751Y011170D01*
X009715Y011258D01*
X009648Y011325D01*
X009560Y011361D01*
X009465Y011361D01*
X009377Y011325D01*
X009310Y011258D01*
X009278Y011182D02*
X001678Y011182D01*
X001678Y011084D02*
X009273Y011084D01*
X009312Y010985D02*
X001678Y010985D01*
X001678Y010887D02*
X009362Y010887D01*
X009362Y010788D02*
X001678Y010788D01*
X001678Y010690D02*
X009362Y010690D01*
X009362Y010591D02*
X001678Y010591D01*
X001678Y010493D02*
X002102Y010493D01*
X002007Y010453D02*
X001854Y010301D01*
X001772Y010101D01*
X001772Y009884D01*
X001854Y009685D01*
X002007Y009532D01*
X002207Y009449D01*
X002424Y009449D01*
X002623Y009532D01*
X002776Y009685D01*
X002859Y009884D01*
X002859Y010101D01*
X002776Y010301D01*
X002623Y010453D01*
X002424Y010536D01*
X002207Y010536D01*
X002007Y010453D01*
X001948Y010394D02*
X001678Y010394D01*
X001678Y010296D02*
X001852Y010296D01*
X001812Y010197D02*
X001678Y010197D01*
X001678Y010099D02*
X001772Y010099D01*
X001772Y010000D02*
X001678Y010000D01*
X001678Y009902D02*
X001772Y009902D01*
X001805Y009803D02*
X001678Y009803D01*
X001678Y009705D02*
X001846Y009705D01*
X001933Y009606D02*
X001678Y009606D01*
X001678Y009508D02*
X002065Y009508D01*
X001678Y009409D02*
X009362Y009409D01*
X009362Y009311D02*
X001678Y009311D01*
X001678Y009212D02*
X009362Y009212D01*
X009362Y009114D02*
X001678Y009114D01*
X001678Y009015D02*
X009362Y009015D01*
X009362Y008917D02*
X001678Y008917D01*
X001678Y008818D02*
X009302Y008818D01*
X009273Y008720D02*
X001678Y008720D01*
X001678Y008621D02*
X009287Y008621D01*
X009353Y008523D02*
X001678Y008523D01*
X001678Y008424D02*
X010630Y008424D01*
X010630Y008326D02*
X001678Y008326D01*
X001678Y008227D02*
X010630Y008227D01*
X010630Y008129D02*
X001678Y008129D01*
X001678Y008030D02*
X010630Y008030D01*
X010630Y007932D02*
X001678Y007932D01*
X001678Y007833D02*
X010630Y007833D01*
X010630Y007735D02*
X001678Y007735D01*
X001678Y007636D02*
X010630Y007636D01*
X010630Y007538D02*
X001678Y007538D01*
X001678Y007439D02*
X010630Y007439D01*
X010630Y007341D02*
X001678Y007341D01*
X001678Y007242D02*
X010630Y007242D01*
X010630Y007144D02*
X001678Y007144D01*
X001678Y007045D02*
X010630Y007045D01*
X010630Y006947D02*
X001678Y006947D01*
X001678Y006848D02*
X010630Y006848D01*
X010630Y006750D02*
X001678Y006750D01*
X001678Y006651D02*
X010630Y006651D01*
X010630Y006553D02*
X001678Y006553D01*
X001678Y006454D02*
X010553Y006454D01*
X010454Y006356D02*
X001678Y006356D01*
X001678Y006257D02*
X010356Y006257D01*
X010257Y006159D02*
X001678Y006159D01*
X001678Y006060D02*
X010159Y006060D01*
X010060Y005962D02*
X001678Y005962D01*
X001678Y005863D02*
X009962Y005863D01*
X009863Y005765D02*
X001678Y005765D01*
X001678Y005666D02*
X009765Y005666D01*
X009666Y005568D02*
X001678Y005568D01*
X001678Y005469D02*
X009568Y005469D01*
X009469Y005371D02*
X001678Y005371D01*
X001678Y005272D02*
X009371Y005272D01*
X009272Y005174D02*
X001678Y005174D01*
X001678Y005075D02*
X009189Y005075D01*
X009189Y004977D02*
X001678Y004977D01*
X001678Y004878D02*
X009189Y004878D01*
X009189Y004780D02*
X001678Y004780D01*
X001678Y004681D02*
X009189Y004681D01*
X009189Y004583D02*
X001678Y004583D01*
X001678Y004484D02*
X009189Y004484D01*
X009189Y004386D02*
X001678Y004386D01*
X001678Y004287D02*
X009189Y004287D01*
X009193Y004189D02*
X001678Y004189D01*
X001678Y004090D02*
X009193Y004090D01*
X009193Y003992D02*
X001678Y003992D01*
X001678Y003893D02*
X009193Y003893D01*
X009193Y003795D02*
X001678Y003795D01*
X001678Y003696D02*
X009193Y003696D01*
X009193Y003598D02*
X001678Y003598D01*
X001678Y003499D02*
X009193Y003499D01*
X009193Y003401D02*
X001678Y003401D01*
X001678Y003302D02*
X009193Y003302D01*
X009193Y003204D02*
X001678Y003204D01*
X001678Y003105D02*
X009193Y003105D01*
X009193Y003007D02*
X001678Y003007D01*
X001678Y002908D02*
X009193Y002908D01*
X009193Y002810D02*
X001678Y002810D01*
X001678Y002711D02*
X009193Y002711D01*
X009193Y002613D02*
X001678Y002613D01*
X001678Y002514D02*
X009193Y002514D01*
X009193Y002416D02*
X001678Y002416D01*
X001678Y002317D02*
X009193Y002317D01*
X009193Y002219D02*
X001678Y002219D01*
X001678Y002120D02*
X009105Y002120D01*
X009105Y002022D02*
X001678Y002022D01*
X001678Y001923D02*
X009105Y001923D01*
X009105Y001825D02*
X001678Y001825D01*
X001678Y001726D02*
X009105Y001726D01*
X009193Y001628D02*
X001678Y001628D01*
X001678Y001529D02*
X009193Y001529D01*
X009279Y001431D02*
X002546Y001431D01*
X002623Y001398D02*
X002424Y001481D01*
X002207Y001481D01*
X002007Y001398D01*
X001854Y001245D01*
X001772Y001046D01*
X001772Y000829D01*
X001854Y000629D01*
X002007Y000476D01*
X002207Y000394D01*
X002424Y000394D01*
X002623Y000476D01*
X002776Y000629D01*
X002859Y000829D01*
X002859Y001046D01*
X002776Y001245D01*
X002623Y001398D01*
X002690Y001332D02*
X009378Y001332D01*
X009476Y001234D02*
X002781Y001234D01*
X002822Y001135D02*
X009507Y001135D01*
X009507Y001037D02*
X002859Y001037D01*
X002859Y000938D02*
X009528Y000938D01*
X009477Y000840D02*
X002859Y000840D01*
X002822Y000741D02*
X009457Y000741D01*
X009457Y000607D02*
X009457Y000469D01*
X009467Y000431D01*
X009487Y000396D01*
X009515Y000369D01*
X009549Y000349D01*
X009587Y000339D01*
X009765Y000339D01*
X009765Y000607D01*
X009457Y000607D01*
X009457Y000544D02*
X002691Y000544D01*
X002782Y000643D02*
X009765Y000643D01*
X009803Y000643D02*
X010364Y000643D01*
X010344Y000544D02*
X010111Y000544D01*
X010105Y000446D02*
X010367Y000446D01*
X010446Y000347D02*
X010012Y000347D01*
X009803Y000347D02*
X009765Y000347D01*
X009765Y000446D02*
X009803Y000446D01*
X009803Y000544D02*
X009765Y000544D01*
X009556Y000347D02*
X001678Y000347D01*
X001678Y000446D02*
X002082Y000446D01*
X001940Y000544D02*
X001678Y000544D01*
X001678Y000643D02*
X001849Y000643D01*
X001808Y000741D02*
X001678Y000741D01*
X001678Y000840D02*
X001772Y000840D01*
X001772Y000938D02*
X001678Y000938D01*
X001678Y001037D02*
X001772Y001037D01*
X001809Y001135D02*
X001678Y001135D01*
X001678Y001234D02*
X001850Y001234D01*
X001941Y001332D02*
X001678Y001332D01*
X001678Y001431D02*
X002085Y001431D01*
X002549Y000446D02*
X009463Y000446D01*
X010111Y000741D02*
X010438Y000741D01*
X010420Y000840D02*
X010091Y000840D01*
X010040Y000938D02*
X010420Y000938D01*
X010589Y000894D02*
X010589Y000554D01*
X010583Y000548D01*
X010803Y000643D02*
X011469Y000643D01*
X011467Y000741D02*
X011057Y000741D01*
X011126Y000894D02*
X011370Y001138D01*
X011370Y002713D01*
X011343Y002741D01*
X011268Y002666D01*
X010971Y002666D01*
X010852Y002786D02*
X010802Y002836D01*
X010802Y002976D01*
X010817Y002991D01*
X010796Y003012D01*
X010767Y003062D01*
X010758Y003095D01*
X010758Y003076D01*
X010708Y003026D01*
X010758Y002976D01*
X010758Y002836D01*
X010708Y002786D01*
X010758Y002736D01*
X010758Y002596D01*
X010739Y002577D01*
X010739Y002501D01*
X010786Y002455D01*
X010822Y002367D01*
X010822Y002272D01*
X010786Y002184D01*
X010718Y002117D01*
X010631Y002080D01*
X010536Y002080D01*
X010448Y002117D01*
X010380Y002184D01*
X010344Y002272D01*
X010344Y002367D01*
X010380Y002455D01*
X010439Y002513D01*
X010439Y002577D01*
X010420Y002596D01*
X010420Y002736D01*
X010440Y002756D01*
X010073Y002756D01*
X010073Y002727D01*
X010014Y002668D01*
X009577Y002668D01*
X009519Y002727D01*
X009519Y002760D01*
X009493Y002760D01*
X009493Y002187D01*
X009522Y002187D01*
X009581Y002128D01*
X009581Y001691D01*
X009522Y001633D01*
X009501Y001633D01*
X009758Y001376D01*
X010002Y001376D01*
X010061Y001317D01*
X010061Y001288D01*
X010436Y001288D01*
X010420Y001304D01*
X010420Y001331D01*
X010076Y001675D01*
X010034Y001633D01*
X009676Y001633D01*
X009617Y001691D01*
X009617Y002128D01*
X009676Y002187D01*
X010034Y002187D01*
X010093Y002128D01*
X010093Y002060D01*
X010116Y002060D01*
X010632Y001543D01*
X010659Y001543D01*
X010758Y001444D01*
X010758Y001425D01*
X010767Y001459D01*
X010796Y001509D01*
X010836Y001550D01*
X010886Y001578D01*
X010942Y001593D01*
X010971Y001593D01*
X010971Y001374D01*
X010971Y001374D01*
X011190Y001374D01*
X011190Y001346D01*
X011175Y001290D01*
X011146Y001240D01*
X011125Y001219D01*
X011140Y001204D01*
X011140Y001120D01*
X011220Y001200D01*
X011220Y002516D01*
X011060Y002516D01*
X011041Y002497D01*
X010901Y002497D01*
X010802Y002596D01*
X010802Y002736D01*
X010852Y002786D01*
X010828Y002810D02*
X010731Y002810D01*
X010758Y002908D02*
X010802Y002908D01*
X010801Y003007D02*
X010727Y003007D01*
X010589Y002906D02*
X009796Y002906D01*
X009792Y002910D01*
X009343Y002910D01*
X009343Y004288D01*
X009339Y004292D01*
X009339Y005028D01*
X010780Y006469D01*
X010780Y013142D01*
X011002Y013054D02*
X012195Y013054D01*
X012195Y013152D02*
X011019Y013152D01*
X010994Y013251D02*
X012195Y013251D01*
X012195Y013349D02*
X011671Y013349D01*
X011742Y013448D02*
X012195Y013448D01*
X012195Y013546D02*
X011759Y013546D01*
X011734Y013645D02*
X012195Y013645D01*
X012195Y013743D02*
X011645Y013743D01*
X011520Y013536D02*
X008811Y013536D01*
X008963Y013349D02*
X010655Y013349D01*
X010905Y013349D02*
X011369Y013349D01*
X011396Y013743D02*
X008936Y013743D01*
X010931Y012955D02*
X012195Y012955D01*
X012195Y012857D02*
X010930Y012857D01*
X010930Y012758D02*
X012195Y012758D01*
X012195Y012660D02*
X010930Y012660D01*
X010930Y012561D02*
X012195Y012561D01*
X012195Y012463D02*
X010930Y012463D01*
X010930Y012364D02*
X012195Y012364D01*
X012195Y012266D02*
X010930Y012266D01*
X010930Y012167D02*
X012195Y012167D01*
X012195Y012069D02*
X010930Y012069D01*
X010930Y011970D02*
X012195Y011970D01*
X012195Y011872D02*
X010930Y011872D01*
X010930Y011773D02*
X012195Y011773D01*
X012195Y011675D02*
X010930Y011675D01*
X010930Y011576D02*
X012195Y011576D01*
X012195Y011478D02*
X010930Y011478D01*
X010930Y011379D02*
X012195Y011379D01*
X012195Y011281D02*
X010930Y011281D01*
X010930Y011182D02*
X012195Y011182D01*
X012195Y011084D02*
X010930Y011084D01*
X010930Y010985D02*
X012195Y010985D01*
X012195Y010887D02*
X010930Y010887D01*
X010930Y010788D02*
X012195Y010788D01*
X012195Y010690D02*
X010930Y010690D01*
X010930Y010591D02*
X012195Y010591D01*
X012195Y010493D02*
X010930Y010493D01*
X010930Y010394D02*
X012195Y010394D01*
X012195Y010296D02*
X010930Y010296D01*
X010930Y010197D02*
X012195Y010197D01*
X012195Y010099D02*
X010930Y010099D01*
X010930Y010000D02*
X012195Y010000D01*
X012195Y009902D02*
X010930Y009902D01*
X010930Y009803D02*
X012195Y009803D01*
X012195Y009705D02*
X010930Y009705D01*
X010930Y009606D02*
X012195Y009606D01*
X012195Y009508D02*
X010930Y009508D01*
X010930Y009409D02*
X012195Y009409D01*
X012195Y009311D02*
X010930Y009311D01*
X010930Y009212D02*
X012195Y009212D01*
X012195Y009114D02*
X010930Y009114D01*
X010930Y009015D02*
X012195Y009015D01*
X012195Y008917D02*
X010930Y008917D01*
X010930Y008818D02*
X012195Y008818D01*
X012195Y008720D02*
X010930Y008720D01*
X010930Y008621D02*
X012195Y008621D01*
X012195Y008523D02*
X010930Y008523D01*
X010930Y008424D02*
X012195Y008424D01*
X012195Y008326D02*
X010930Y008326D01*
X010930Y008227D02*
X012195Y008227D01*
X012195Y008129D02*
X010930Y008129D01*
X010930Y008030D02*
X012195Y008030D01*
X012195Y007932D02*
X010930Y007932D01*
X010930Y007833D02*
X012195Y007833D01*
X012195Y007735D02*
X010930Y007735D01*
X010930Y007636D02*
X012195Y007636D01*
X012195Y007538D02*
X010930Y007538D01*
X010930Y007439D02*
X012195Y007439D01*
X012195Y007341D02*
X010930Y007341D01*
X010930Y007242D02*
X012195Y007242D01*
X012195Y007144D02*
X010930Y007144D01*
X010930Y007045D02*
X012195Y007045D01*
X012195Y006947D02*
X010930Y006947D01*
X010930Y006848D02*
X012195Y006848D01*
X012195Y006750D02*
X010930Y006750D01*
X010930Y006651D02*
X012195Y006651D01*
X012195Y006553D02*
X010930Y006553D01*
X010930Y006454D02*
X012195Y006454D01*
X012195Y006356D02*
X010879Y006356D01*
X010842Y006319D02*
X010842Y006319D01*
X010780Y006257D02*
X012195Y006257D01*
X012195Y006159D02*
X010682Y006159D01*
X010583Y006060D02*
X012195Y006060D01*
X012195Y005962D02*
X010485Y005962D01*
X010386Y005863D02*
X012195Y005863D01*
X012195Y005765D02*
X010288Y005765D01*
X010189Y005666D02*
X012195Y005666D01*
X012195Y005568D02*
X010091Y005568D01*
X009992Y005469D02*
X012195Y005469D01*
X012195Y005371D02*
X009894Y005371D01*
X009795Y005272D02*
X012195Y005272D01*
X012195Y005174D02*
X009697Y005174D01*
X009598Y005075D02*
X012195Y005075D01*
X012195Y004977D02*
X009500Y004977D01*
X009489Y004878D02*
X012195Y004878D01*
X012195Y004780D02*
X009489Y004780D01*
X009489Y004681D02*
X012128Y004681D01*
X012029Y004583D02*
X009489Y004583D01*
X009489Y004484D02*
X009499Y004484D01*
X009343Y004288D02*
X009344Y004282D01*
X009348Y004277D01*
X009353Y004273D01*
X009359Y004272D01*
X009737Y004272D01*
X009974Y004287D02*
X010011Y004287D01*
X010011Y004189D02*
X009974Y004189D01*
X009974Y004090D02*
X010011Y004090D01*
X010011Y004386D02*
X009974Y004386D01*
X009974Y004484D02*
X010011Y004484D01*
X010248Y004272D02*
X010589Y003931D01*
X010589Y003146D01*
X010420Y003105D02*
X010053Y003105D01*
X010102Y003204D02*
X010420Y003204D01*
X010439Y003302D02*
X010123Y003302D01*
X010123Y003437D02*
X010123Y003575D01*
X010113Y003613D01*
X010093Y003648D01*
X010065Y003676D01*
X010031Y003695D01*
X009993Y003706D01*
X009815Y003706D01*
X009815Y003437D01*
X010123Y003437D01*
X010123Y003499D02*
X010439Y003499D01*
X010439Y003401D02*
X009815Y003401D01*
X009815Y003499D02*
X009777Y003499D01*
X009777Y003598D02*
X009815Y003598D01*
X009815Y003696D02*
X009777Y003696D01*
X009563Y003696D02*
X009493Y003696D01*
X009493Y003795D02*
X010439Y003795D01*
X010439Y003696D02*
X010028Y003696D01*
X010117Y003598D02*
X010439Y003598D01*
X010415Y003893D02*
X009493Y003893D01*
X009493Y003992D02*
X010317Y003992D01*
X010544Y004189D02*
X011635Y004189D01*
X011734Y004287D02*
X010486Y004287D01*
X010486Y004386D02*
X011832Y004386D01*
X011931Y004484D02*
X010486Y004484D01*
X010643Y004090D02*
X011537Y004090D01*
X011438Y003992D02*
X010739Y003992D01*
X010739Y003893D02*
X011340Y003893D01*
X011241Y003795D02*
X010739Y003795D01*
X010739Y003696D02*
X011210Y003696D01*
X011220Y003598D02*
X010739Y003598D01*
X010739Y003499D02*
X011220Y003499D01*
X011220Y003401D02*
X010739Y003401D01*
X010739Y003302D02*
X010817Y003302D01*
X010760Y003204D02*
X010758Y003204D01*
X010971Y003204D02*
X010971Y003204D01*
X010971Y003302D02*
X010971Y003302D01*
X011124Y003302D02*
X011220Y003302D01*
X011220Y003204D02*
X011182Y003204D01*
X011186Y003105D02*
X011220Y003105D01*
X011220Y003007D02*
X011141Y003007D01*
X011140Y002908D02*
X011220Y002908D01*
X011370Y002768D02*
X011343Y002741D01*
X011370Y002768D02*
X011370Y003697D01*
X011520Y003598D02*
X011940Y003598D01*
X011955Y003562D02*
X012022Y003495D01*
X012110Y003458D01*
X012205Y003458D01*
X012293Y003495D01*
X012361Y003562D01*
X012397Y003650D01*
X012397Y003724D01*
X012811Y004138D01*
X012898Y004226D01*
X012898Y013980D01*
X012915Y013987D01*
X012983Y014054D01*
X013019Y014142D01*
X013019Y014237D01*
X012983Y014325D01*
X012915Y014392D01*
X012827Y014428D01*
X012732Y014428D01*
X012645Y014392D01*
X012577Y014325D01*
X012541Y014237D01*
X012541Y014142D01*
X012577Y014054D01*
X012598Y014033D01*
X012598Y004350D01*
X012185Y003936D01*
X012110Y003936D01*
X012022Y003900D01*
X011955Y003833D01*
X011919Y003745D01*
X011919Y003650D01*
X011955Y003562D01*
X012018Y003499D02*
X011520Y003499D01*
X011596Y003696D02*
X011919Y003696D01*
X011939Y003795D02*
X011694Y003795D01*
X011793Y003893D02*
X012016Y003893D01*
X011891Y003992D02*
X012240Y003992D01*
X012339Y004090D02*
X011990Y004090D01*
X012088Y004189D02*
X012437Y004189D01*
X012536Y004287D02*
X012187Y004287D01*
X012285Y004386D02*
X012598Y004386D01*
X012598Y004484D02*
X012384Y004484D01*
X012482Y004583D02*
X012598Y004583D01*
X012598Y004681D02*
X012515Y004681D01*
X012515Y004780D02*
X012598Y004780D01*
X012598Y004878D02*
X012515Y004878D01*
X012515Y004977D02*
X012598Y004977D01*
X012598Y005075D02*
X012515Y005075D01*
X012515Y005174D02*
X012598Y005174D01*
X012598Y005272D02*
X012515Y005272D01*
X012515Y005371D02*
X012598Y005371D01*
X012598Y005469D02*
X012515Y005469D01*
X012515Y005568D02*
X012598Y005568D01*
X012598Y005666D02*
X012515Y005666D01*
X012515Y005765D02*
X012598Y005765D01*
X012598Y005863D02*
X012515Y005863D01*
X012515Y005962D02*
X012598Y005962D01*
X012598Y006060D02*
X012515Y006060D01*
X012515Y006159D02*
X012598Y006159D01*
X012598Y006257D02*
X012515Y006257D01*
X012515Y006356D02*
X012598Y006356D01*
X012598Y006454D02*
X012515Y006454D01*
X012515Y006553D02*
X012598Y006553D01*
X012598Y006651D02*
X012515Y006651D01*
X012515Y006750D02*
X012598Y006750D01*
X012598Y006848D02*
X012515Y006848D01*
X012515Y006947D02*
X012598Y006947D01*
X012598Y007045D02*
X012515Y007045D01*
X012515Y007144D02*
X012598Y007144D01*
X012598Y007242D02*
X012515Y007242D01*
X012515Y007341D02*
X012598Y007341D01*
X012598Y007439D02*
X012515Y007439D01*
X012515Y007538D02*
X012598Y007538D01*
X012598Y007636D02*
X012515Y007636D01*
X012515Y007735D02*
X012598Y007735D01*
X012598Y007833D02*
X012515Y007833D01*
X012515Y007932D02*
X012598Y007932D01*
X012598Y008030D02*
X012515Y008030D01*
X012515Y008129D02*
X012598Y008129D01*
X012598Y008227D02*
X012515Y008227D01*
X012515Y008326D02*
X012598Y008326D01*
X012598Y008424D02*
X012515Y008424D01*
X012515Y008523D02*
X012598Y008523D01*
X012598Y008621D02*
X012515Y008621D01*
X012515Y008720D02*
X012598Y008720D01*
X012598Y008818D02*
X012515Y008818D01*
X012515Y008917D02*
X012598Y008917D01*
X012598Y009015D02*
X012515Y009015D01*
X012515Y009114D02*
X012598Y009114D01*
X012598Y009212D02*
X012515Y009212D01*
X012515Y009311D02*
X012598Y009311D01*
X012598Y009409D02*
X012515Y009409D01*
X012515Y009508D02*
X012598Y009508D01*
X012598Y009606D02*
X012515Y009606D01*
X012515Y009705D02*
X012598Y009705D01*
X012598Y009803D02*
X012515Y009803D01*
X012515Y009902D02*
X012598Y009902D01*
X012598Y010000D02*
X012515Y010000D01*
X012515Y010099D02*
X012598Y010099D01*
X012598Y010197D02*
X012515Y010197D01*
X012515Y010296D02*
X012598Y010296D01*
X012598Y010394D02*
X012515Y010394D01*
X012515Y010493D02*
X012598Y010493D01*
X012598Y010591D02*
X012515Y010591D01*
X012515Y010690D02*
X012598Y010690D01*
X012598Y010788D02*
X012515Y010788D01*
X012515Y010887D02*
X012598Y010887D01*
X012598Y010985D02*
X012515Y010985D01*
X012515Y011084D02*
X012598Y011084D01*
X012598Y011182D02*
X012515Y011182D01*
X012515Y011281D02*
X012598Y011281D01*
X012598Y011379D02*
X012515Y011379D01*
X012515Y011478D02*
X012598Y011478D01*
X012598Y011576D02*
X012515Y011576D01*
X012515Y011675D02*
X012598Y011675D01*
X012598Y011773D02*
X012515Y011773D01*
X012515Y011872D02*
X012598Y011872D01*
X012598Y011970D02*
X012515Y011970D01*
X012515Y012069D02*
X012598Y012069D01*
X012598Y012167D02*
X012515Y012167D01*
X012515Y012266D02*
X012598Y012266D01*
X012598Y012364D02*
X012515Y012364D01*
X012515Y012463D02*
X012598Y012463D01*
X012598Y012561D02*
X012515Y012561D01*
X012515Y012660D02*
X012598Y012660D01*
X012598Y012758D02*
X012515Y012758D01*
X012515Y012857D02*
X012598Y012857D01*
X012598Y012955D02*
X012515Y012955D01*
X012515Y013054D02*
X012598Y013054D01*
X012598Y013152D02*
X012515Y013152D01*
X012515Y013251D02*
X012598Y013251D01*
X012598Y013349D02*
X012515Y013349D01*
X012515Y013448D02*
X012598Y013448D01*
X012598Y013546D02*
X012515Y013546D01*
X012515Y013645D02*
X012598Y013645D01*
X012598Y013743D02*
X012515Y013743D01*
X012515Y013842D02*
X012598Y013842D01*
X012598Y013940D02*
X012515Y013940D01*
X012515Y014039D02*
X012593Y014039D01*
X012543Y014137D02*
X012515Y014137D01*
X012515Y014236D02*
X012541Y014236D01*
X012515Y014334D02*
X012587Y014334D01*
X012515Y014433D02*
X013254Y014433D01*
X013155Y014531D02*
X012515Y014531D01*
X012515Y014630D02*
X013118Y014630D01*
X013118Y014728D02*
X012515Y014728D01*
X012515Y014827D02*
X013118Y014827D01*
X013118Y014925D02*
X012515Y014925D01*
X012515Y015024D02*
X013118Y015024D01*
X013118Y015122D02*
X012515Y015122D01*
X012471Y015221D02*
X013118Y015221D01*
X013118Y015319D02*
X012373Y015319D01*
X012274Y015418D02*
X013118Y015418D01*
X013118Y015516D02*
X012176Y015516D01*
X012161Y015615D02*
X012077Y015615D01*
X012066Y015713D02*
X011979Y015713D01*
X012025Y015812D02*
X011897Y015812D01*
X011905Y015910D02*
X012017Y015910D01*
X012035Y016009D02*
X011887Y016009D01*
X011836Y016107D02*
X012086Y016107D01*
X012211Y016501D02*
X013906Y016501D01*
X013906Y016403D02*
X013680Y016403D01*
X013779Y016304D02*
X013906Y016304D01*
X013906Y016206D02*
X013877Y016206D01*
X013693Y015812D02*
X013665Y015812D01*
X013646Y015713D02*
X013693Y015713D01*
X013693Y015615D02*
X013646Y015615D01*
X013646Y015516D02*
X013693Y015516D01*
X013693Y015418D02*
X013646Y015418D01*
X013646Y015319D02*
X013693Y015319D01*
X013693Y015221D02*
X013646Y015221D01*
X013646Y015122D02*
X013693Y015122D01*
X013693Y015024D02*
X013646Y015024D01*
X013646Y014925D02*
X013693Y014925D01*
X013693Y014827D02*
X013646Y014827D01*
X013729Y014728D02*
X013765Y014728D01*
X013827Y014630D02*
X013864Y014630D01*
X013926Y014531D02*
X013962Y014531D01*
X014024Y014433D02*
X014061Y014433D01*
X014123Y014334D02*
X014159Y014334D01*
X014221Y014236D02*
X014258Y014236D01*
X014320Y014137D02*
X014356Y014137D01*
X014418Y014039D02*
X014455Y014039D01*
X014517Y013940D02*
X014553Y013940D01*
X014615Y013842D02*
X014652Y013842D01*
X014714Y013743D02*
X015126Y013743D01*
X015285Y013743D02*
X015644Y013743D01*
X015546Y013842D02*
X015411Y013842D01*
X015444Y013940D02*
X015447Y013940D01*
X015205Y013969D02*
X014737Y013969D01*
X014812Y013645D02*
X015743Y013645D01*
X015841Y013546D02*
X014911Y013546D01*
X015009Y013448D02*
X015940Y013448D01*
X016038Y013349D02*
X015108Y013349D01*
X015206Y013251D02*
X016137Y013251D01*
X016235Y013152D02*
X015305Y013152D01*
X015403Y013054D02*
X016334Y013054D01*
X016432Y012955D02*
X015502Y012955D01*
X015600Y012857D02*
X016531Y012857D01*
X016629Y012758D02*
X015699Y012758D01*
X015797Y012660D02*
X016728Y012660D01*
X016826Y012561D02*
X015896Y012561D01*
X015968Y012489D02*
X015968Y012489D01*
X015994Y012463D02*
X017173Y012463D01*
X017403Y012463D02*
X019496Y012463D01*
X019496Y012561D02*
X017500Y012561D01*
X017527Y012660D02*
X019496Y012660D01*
X019496Y012758D02*
X017512Y012758D01*
X017443Y012857D02*
X019496Y012857D01*
X019496Y012364D02*
X016056Y012364D01*
X016056Y012266D02*
X019496Y012266D01*
X019496Y012167D02*
X016056Y012167D01*
X016056Y012069D02*
X019496Y012069D01*
X019496Y011970D02*
X016056Y011970D01*
X016056Y011872D02*
X019496Y011872D01*
X019496Y011773D02*
X016056Y011773D01*
X016056Y011675D02*
X019496Y011675D01*
X019496Y011576D02*
X016056Y011576D01*
X016056Y011478D02*
X019496Y011478D01*
X019496Y011379D02*
X016056Y011379D01*
X016056Y011281D02*
X019496Y011281D01*
X019496Y011182D02*
X016056Y011182D01*
X016056Y011084D02*
X019496Y011084D01*
X019496Y010985D02*
X016056Y010985D01*
X016056Y010887D02*
X019496Y010887D01*
X019496Y010788D02*
X016056Y010788D01*
X016056Y010690D02*
X019496Y010690D01*
X019496Y010591D02*
X016056Y010591D01*
X016056Y010493D02*
X019496Y010493D01*
X019496Y010394D02*
X016056Y010394D01*
X016056Y010296D02*
X019496Y010296D01*
X019496Y010197D02*
X016056Y010197D01*
X016056Y010099D02*
X018636Y010099D01*
X018543Y010060D02*
X018390Y009907D01*
X018307Y009707D01*
X018307Y009491D01*
X018390Y009291D01*
X018543Y009138D01*
X018743Y009055D01*
X018959Y009055D01*
X019159Y009138D01*
X019312Y009291D01*
X019394Y009491D01*
X019394Y009707D01*
X019312Y009907D01*
X019159Y010060D01*
X018959Y010143D01*
X018743Y010143D01*
X018543Y010060D01*
X018483Y010000D02*
X016056Y010000D01*
X016056Y009902D02*
X018388Y009902D01*
X018347Y009803D02*
X016056Y009803D01*
X016056Y009705D02*
X018307Y009705D01*
X018307Y009606D02*
X016056Y009606D01*
X016056Y009508D02*
X018307Y009508D01*
X018341Y009409D02*
X016056Y009409D01*
X016056Y009311D02*
X018382Y009311D01*
X018469Y009212D02*
X016056Y009212D01*
X016056Y009114D02*
X018602Y009114D01*
X019100Y009114D02*
X019496Y009114D01*
X019496Y009212D02*
X019233Y009212D01*
X019320Y009311D02*
X019496Y009311D01*
X019496Y009409D02*
X019361Y009409D01*
X019394Y009508D02*
X019496Y009508D01*
X019496Y009606D02*
X019394Y009606D01*
X019394Y009705D02*
X019496Y009705D01*
X019496Y009803D02*
X019355Y009803D01*
X019314Y009902D02*
X019496Y009902D01*
X019496Y010000D02*
X019218Y010000D01*
X019065Y010099D02*
X019496Y010099D01*
X019496Y009015D02*
X016112Y009015D01*
X016176Y008917D02*
X019496Y008917D01*
X019496Y008818D02*
X016196Y008818D01*
X016184Y008720D02*
X019496Y008720D01*
X019496Y008621D02*
X016133Y008621D01*
X015989Y008523D02*
X016489Y008523D01*
X016489Y008424D02*
X014670Y008424D01*
X014670Y008326D02*
X016489Y008326D01*
X016489Y008227D02*
X014670Y008227D01*
X014670Y008129D02*
X016489Y008129D01*
X016489Y008030D02*
X014670Y008030D01*
X014670Y007932D02*
X016489Y007932D01*
X016489Y007833D02*
X014670Y007833D01*
X014670Y007735D02*
X016489Y007735D01*
X016489Y007636D02*
X014670Y007636D01*
X014670Y007538D02*
X016489Y007538D01*
X016489Y007439D02*
X014670Y007439D01*
X014670Y007341D02*
X016489Y007341D01*
X016489Y007242D02*
X014670Y007242D01*
X014670Y007144D02*
X016489Y007144D01*
X016489Y007045D02*
X014670Y007045D01*
X014670Y006947D02*
X016489Y006947D01*
X016489Y006848D02*
X014670Y006848D01*
X014670Y006750D02*
X016489Y006750D01*
X016489Y006651D02*
X014670Y006651D01*
X014670Y006553D02*
X016489Y006553D01*
X016489Y006454D02*
X014670Y006454D01*
X014670Y006356D02*
X016489Y006356D01*
X016489Y006257D02*
X014670Y006257D01*
X014670Y006159D02*
X016489Y006159D01*
X016489Y006060D02*
X014670Y006060D01*
X014670Y005962D02*
X016489Y005962D01*
X016489Y005863D02*
X014670Y005863D01*
X014670Y005765D02*
X016489Y005765D01*
X016489Y005666D02*
X014670Y005666D01*
X014670Y005568D02*
X016489Y005568D01*
X016489Y005469D02*
X014670Y005469D01*
X014670Y005371D02*
X016489Y005371D01*
X016489Y005272D02*
X014670Y005272D01*
X014670Y005174D02*
X016489Y005174D01*
X016489Y005075D02*
X014670Y005075D01*
X014670Y004977D02*
X016489Y004977D01*
X016489Y004878D02*
X014670Y004878D01*
X014670Y004780D02*
X016489Y004780D01*
X016489Y004681D02*
X014670Y004681D01*
X014670Y004583D02*
X016489Y004583D01*
X016489Y004484D02*
X014670Y004484D01*
X014670Y004386D02*
X016489Y004386D01*
X016489Y004287D02*
X014670Y004287D01*
X014670Y004189D02*
X016489Y004189D01*
X016489Y004090D02*
X014670Y004090D01*
X014670Y003992D02*
X016489Y003992D01*
X016489Y003893D02*
X014670Y003893D01*
X014670Y003795D02*
X016489Y003795D01*
X016489Y003696D02*
X014670Y003696D01*
X014670Y003598D02*
X016489Y003598D01*
X016489Y003499D02*
X014670Y003499D01*
X014670Y003401D02*
X016489Y003401D01*
X016489Y003302D02*
X014670Y003302D01*
X014670Y003204D02*
X016489Y003204D01*
X016489Y003105D02*
X014670Y003105D01*
X014670Y003007D02*
X016489Y003007D01*
X016489Y002908D02*
X014667Y002908D01*
X014670Y002911D02*
X014670Y012560D01*
X014723Y012613D01*
X014759Y012701D01*
X014759Y012796D01*
X014723Y012884D01*
X014655Y012951D01*
X014568Y012987D01*
X014473Y012987D01*
X014385Y012951D01*
X014317Y012884D01*
X014281Y012796D01*
X014281Y012701D01*
X014317Y012613D01*
X014370Y012560D01*
X014370Y003035D01*
X012971Y001636D01*
X012727Y001636D01*
X012668Y001577D01*
X012668Y001219D01*
X012727Y001160D01*
X013164Y001160D01*
X013222Y001219D01*
X013222Y001463D01*
X014670Y002911D01*
X014569Y002810D02*
X016489Y002810D01*
X016489Y002711D02*
X014470Y002711D01*
X014372Y002613D02*
X016489Y002613D01*
X016489Y002514D02*
X014273Y002514D01*
X014175Y002416D02*
X016489Y002416D01*
X016489Y002317D02*
X014076Y002317D01*
X013978Y002219D02*
X016489Y002219D01*
X016489Y002120D02*
X013879Y002120D01*
X013781Y002022D02*
X016489Y002022D01*
X016489Y001923D02*
X013682Y001923D01*
X013584Y001825D02*
X016489Y001825D01*
X016489Y001726D02*
X013485Y001726D01*
X013387Y001628D02*
X016489Y001628D01*
X016489Y001529D02*
X013288Y001529D01*
X013222Y001431D02*
X016489Y001431D01*
X016489Y001332D02*
X013222Y001332D01*
X013222Y001234D02*
X016489Y001234D01*
X016489Y001135D02*
X011936Y001135D01*
X011940Y001136D02*
X011974Y001156D01*
X012002Y001184D01*
X012022Y001218D01*
X012032Y001256D01*
X012032Y001405D01*
X011754Y001405D01*
X011754Y001126D01*
X011902Y001126D01*
X011940Y001136D01*
X011982Y001037D02*
X012668Y001037D01*
X012668Y001234D02*
X012026Y001234D01*
X012032Y001332D02*
X012668Y001332D01*
X012668Y001431D02*
X011754Y001431D01*
X011754Y001529D02*
X011696Y001529D01*
X011696Y001628D02*
X011754Y001628D01*
X011754Y001726D02*
X011696Y001726D01*
X011520Y001825D02*
X013160Y001825D01*
X013258Y001923D02*
X011520Y001923D01*
X011520Y002022D02*
X013357Y002022D01*
X013455Y002120D02*
X011520Y002120D01*
X011520Y002219D02*
X013554Y002219D01*
X013652Y002317D02*
X011939Y002317D01*
X011940Y002317D02*
X011974Y002337D01*
X012002Y002365D01*
X012022Y002399D01*
X012032Y002437D01*
X012032Y002586D01*
X011754Y002586D01*
X011754Y002307D01*
X011902Y002307D01*
X011940Y002317D01*
X012026Y002416D02*
X013751Y002416D01*
X013849Y002514D02*
X013238Y002514D01*
X013228Y002504D02*
X013316Y002592D01*
X014080Y003356D01*
X014080Y011970D01*
X014370Y011970D01*
X014370Y011872D02*
X014080Y011872D01*
X014080Y011970D02*
X014132Y012022D01*
X014169Y012110D01*
X014169Y012205D01*
X014132Y012293D01*
X014065Y012361D01*
X013977Y012397D01*
X013882Y012397D01*
X013794Y012361D01*
X013727Y012293D01*
X013690Y012205D01*
X013690Y012110D01*
X013727Y012022D01*
X013780Y011970D01*
X013780Y003480D01*
X013178Y002878D01*
X013164Y002892D01*
X012727Y002892D01*
X012668Y002833D01*
X012668Y002475D01*
X012727Y002416D01*
X013164Y002416D01*
X013222Y002475D01*
X013222Y002504D01*
X013228Y002504D01*
X013336Y002613D02*
X013948Y002613D01*
X014046Y002711D02*
X013435Y002711D01*
X013533Y002810D02*
X014145Y002810D01*
X014243Y002908D02*
X013632Y002908D01*
X013730Y003007D02*
X014342Y003007D01*
X014370Y003105D02*
X013829Y003105D01*
X013927Y003204D02*
X014370Y003204D01*
X014370Y003302D02*
X014026Y003302D01*
X014080Y003401D02*
X014370Y003401D01*
X014370Y003499D02*
X014080Y003499D01*
X014080Y003598D02*
X014370Y003598D01*
X014370Y003696D02*
X014080Y003696D01*
X014080Y003795D02*
X014370Y003795D01*
X014370Y003893D02*
X014080Y003893D01*
X014080Y003992D02*
X014370Y003992D01*
X014370Y004090D02*
X014080Y004090D01*
X014080Y004189D02*
X014370Y004189D01*
X014370Y004287D02*
X014080Y004287D01*
X014080Y004386D02*
X014370Y004386D01*
X014370Y004484D02*
X014080Y004484D01*
X014080Y004583D02*
X014370Y004583D01*
X014370Y004681D02*
X014080Y004681D01*
X014080Y004780D02*
X014370Y004780D01*
X014370Y004878D02*
X014080Y004878D01*
X014080Y004977D02*
X014370Y004977D01*
X014370Y005075D02*
X014080Y005075D01*
X014080Y005174D02*
X014370Y005174D01*
X014370Y005272D02*
X014080Y005272D01*
X014080Y005371D02*
X014370Y005371D01*
X014370Y005469D02*
X014080Y005469D01*
X014080Y005568D02*
X014370Y005568D01*
X014370Y005666D02*
X014080Y005666D01*
X014080Y005765D02*
X014370Y005765D01*
X014370Y005863D02*
X014080Y005863D01*
X014080Y005962D02*
X014370Y005962D01*
X014370Y006060D02*
X014080Y006060D01*
X014080Y006159D02*
X014370Y006159D01*
X014370Y006257D02*
X014080Y006257D01*
X014080Y006356D02*
X014370Y006356D01*
X014370Y006454D02*
X014080Y006454D01*
X014080Y006553D02*
X014370Y006553D01*
X014370Y006651D02*
X014080Y006651D01*
X014080Y006750D02*
X014370Y006750D01*
X014370Y006848D02*
X014080Y006848D01*
X014080Y006947D02*
X014370Y006947D01*
X014370Y007045D02*
X014080Y007045D01*
X014080Y007144D02*
X014370Y007144D01*
X014370Y007242D02*
X014080Y007242D01*
X014080Y007341D02*
X014370Y007341D01*
X014370Y007439D02*
X014080Y007439D01*
X014080Y007538D02*
X014370Y007538D01*
X014370Y007636D02*
X014080Y007636D01*
X014080Y007735D02*
X014370Y007735D01*
X014370Y007833D02*
X014080Y007833D01*
X014080Y007932D02*
X014370Y007932D01*
X014370Y008030D02*
X014080Y008030D01*
X014080Y008129D02*
X014370Y008129D01*
X014370Y008227D02*
X014080Y008227D01*
X014080Y008326D02*
X014370Y008326D01*
X014370Y008424D02*
X014080Y008424D01*
X014080Y008523D02*
X014370Y008523D01*
X014370Y008621D02*
X014080Y008621D01*
X014080Y008720D02*
X014370Y008720D01*
X014370Y008818D02*
X014080Y008818D01*
X014080Y008917D02*
X014370Y008917D01*
X014370Y009015D02*
X014080Y009015D01*
X014080Y009114D02*
X014370Y009114D01*
X014370Y009212D02*
X014080Y009212D01*
X014080Y009311D02*
X014370Y009311D01*
X014370Y009409D02*
X014080Y009409D01*
X014080Y009508D02*
X014370Y009508D01*
X014370Y009606D02*
X014080Y009606D01*
X014080Y009705D02*
X014370Y009705D01*
X014370Y009803D02*
X014080Y009803D01*
X014080Y009902D02*
X014370Y009902D01*
X014370Y010000D02*
X014080Y010000D01*
X014080Y010099D02*
X014370Y010099D01*
X014370Y010197D02*
X014080Y010197D01*
X014080Y010296D02*
X014370Y010296D01*
X014370Y010394D02*
X014080Y010394D01*
X014080Y010493D02*
X014370Y010493D01*
X014370Y010591D02*
X014080Y010591D01*
X014080Y010690D02*
X014370Y010690D01*
X014370Y010788D02*
X014080Y010788D01*
X014080Y010887D02*
X014370Y010887D01*
X014370Y010985D02*
X014080Y010985D01*
X014080Y011084D02*
X014370Y011084D01*
X014370Y011182D02*
X014080Y011182D01*
X014080Y011281D02*
X014370Y011281D01*
X014370Y011379D02*
X014080Y011379D01*
X014080Y011478D02*
X014370Y011478D01*
X014370Y011576D02*
X014080Y011576D01*
X014080Y011675D02*
X014370Y011675D01*
X014370Y011773D02*
X014080Y011773D01*
X013780Y011773D02*
X012898Y011773D01*
X012898Y011675D02*
X013780Y011675D01*
X013780Y011576D02*
X012898Y011576D01*
X012898Y011478D02*
X013780Y011478D01*
X013780Y011379D02*
X012898Y011379D01*
X012898Y011281D02*
X013780Y011281D01*
X013780Y011182D02*
X012898Y011182D01*
X012898Y011084D02*
X013780Y011084D01*
X013780Y010985D02*
X012898Y010985D01*
X012898Y010887D02*
X013780Y010887D01*
X013780Y010788D02*
X012898Y010788D01*
X012898Y010690D02*
X013780Y010690D01*
X013780Y010591D02*
X012898Y010591D01*
X012898Y010493D02*
X013780Y010493D01*
X013780Y010394D02*
X012898Y010394D01*
X012898Y010296D02*
X013780Y010296D01*
X013780Y010197D02*
X012898Y010197D01*
X012898Y010099D02*
X013780Y010099D01*
X013780Y010000D02*
X012898Y010000D01*
X012898Y009902D02*
X013780Y009902D01*
X013780Y009803D02*
X012898Y009803D01*
X012898Y009705D02*
X013780Y009705D01*
X013780Y009606D02*
X012898Y009606D01*
X012898Y009508D02*
X013780Y009508D01*
X013780Y009409D02*
X012898Y009409D01*
X012898Y009311D02*
X013780Y009311D01*
X013780Y009212D02*
X012898Y009212D01*
X012898Y009114D02*
X013780Y009114D01*
X013780Y009015D02*
X012898Y009015D01*
X012898Y008917D02*
X013780Y008917D01*
X013780Y008818D02*
X012898Y008818D01*
X012898Y008720D02*
X013780Y008720D01*
X013780Y008621D02*
X012898Y008621D01*
X012898Y008523D02*
X013780Y008523D01*
X013780Y008424D02*
X012898Y008424D01*
X012898Y008326D02*
X013780Y008326D01*
X013780Y008227D02*
X012898Y008227D01*
X012898Y008129D02*
X013780Y008129D01*
X013780Y008030D02*
X012898Y008030D01*
X012898Y007932D02*
X013780Y007932D01*
X013780Y007833D02*
X012898Y007833D01*
X012898Y007735D02*
X013780Y007735D01*
X013780Y007636D02*
X012898Y007636D01*
X012898Y007538D02*
X013780Y007538D01*
X013780Y007439D02*
X012898Y007439D01*
X012898Y007341D02*
X013780Y007341D01*
X013780Y007242D02*
X012898Y007242D01*
X012898Y007144D02*
X013780Y007144D01*
X013780Y007045D02*
X012898Y007045D01*
X012898Y006947D02*
X013780Y006947D01*
X013780Y006848D02*
X012898Y006848D01*
X012898Y006750D02*
X013780Y006750D01*
X013780Y006651D02*
X012898Y006651D01*
X012898Y006553D02*
X013780Y006553D01*
X013780Y006454D02*
X012898Y006454D01*
X012898Y006356D02*
X013780Y006356D01*
X013780Y006257D02*
X012898Y006257D01*
X012898Y006159D02*
X013780Y006159D01*
X013780Y006060D02*
X012898Y006060D01*
X012898Y005962D02*
X013780Y005962D01*
X013780Y005863D02*
X012898Y005863D01*
X012898Y005765D02*
X013780Y005765D01*
X013780Y005666D02*
X012898Y005666D01*
X012898Y005568D02*
X013780Y005568D01*
X013780Y005469D02*
X012898Y005469D01*
X012898Y005371D02*
X013780Y005371D01*
X013780Y005272D02*
X012898Y005272D01*
X012898Y005174D02*
X013780Y005174D01*
X013780Y005075D02*
X012898Y005075D01*
X012898Y004977D02*
X013780Y004977D01*
X013780Y004878D02*
X012898Y004878D01*
X012898Y004780D02*
X013780Y004780D01*
X013780Y004681D02*
X012898Y004681D01*
X012898Y004583D02*
X013780Y004583D01*
X013780Y004484D02*
X012898Y004484D01*
X012898Y004386D02*
X013780Y004386D01*
X013780Y004287D02*
X012898Y004287D01*
X012861Y004189D02*
X013780Y004189D01*
X013780Y004090D02*
X012763Y004090D01*
X012811Y004138D02*
X012811Y004138D01*
X012748Y004288D02*
X012158Y003697D01*
X012397Y003696D02*
X013780Y003696D01*
X013780Y003598D02*
X012375Y003598D01*
X012298Y003499D02*
X013780Y003499D01*
X013700Y003401D02*
X013167Y003401D01*
X013222Y003302D02*
X013602Y003302D01*
X013503Y003204D02*
X013222Y003204D01*
X013222Y003105D02*
X013405Y003105D01*
X013306Y003007D02*
X013222Y003007D01*
X013208Y002908D02*
X011947Y002908D01*
X011982Y003007D02*
X012668Y003007D01*
X012668Y002810D02*
X012028Y002810D01*
X012032Y002711D02*
X012668Y002711D01*
X012668Y002613D02*
X011754Y002613D01*
X011754Y002711D02*
X011696Y002711D01*
X011696Y002810D02*
X011754Y002810D01*
X011754Y002908D02*
X011696Y002908D01*
X011764Y003166D02*
X011725Y003205D01*
X011764Y003166D02*
X012945Y003166D01*
X012724Y003401D02*
X011982Y003401D01*
X012467Y003795D02*
X013780Y003795D01*
X013780Y003893D02*
X012566Y003893D01*
X012664Y003992D02*
X013780Y003992D01*
X013930Y003418D02*
X013166Y002654D01*
X012945Y002654D01*
X012668Y002514D02*
X012032Y002514D01*
X011754Y002514D02*
X011696Y002514D01*
X011696Y002416D02*
X011754Y002416D01*
X011754Y002317D02*
X011696Y002317D01*
X011220Y002317D02*
X010822Y002317D01*
X010802Y002416D02*
X011220Y002416D01*
X011220Y002514D02*
X011058Y002514D01*
X010884Y002514D02*
X010739Y002514D01*
X010758Y002613D02*
X010802Y002613D01*
X010802Y002711D02*
X010758Y002711D01*
X010589Y002666D02*
X010589Y002325D01*
X010583Y002319D01*
X010344Y002317D02*
X009493Y002317D01*
X009493Y002219D02*
X010366Y002219D01*
X010444Y002120D02*
X010093Y002120D01*
X010154Y002022D02*
X011220Y002022D01*
X011220Y002120D02*
X010722Y002120D01*
X010800Y002219D02*
X011220Y002219D01*
X011220Y001923D02*
X010253Y001923D01*
X010351Y001825D02*
X011220Y001825D01*
X011220Y001726D02*
X010450Y001726D01*
X010548Y001628D02*
X011220Y001628D01*
X011220Y001529D02*
X011126Y001529D01*
X011146Y001509D02*
X011105Y001550D01*
X011055Y001578D01*
X011000Y001593D01*
X010971Y001593D01*
X010971Y001374D01*
X011190Y001374D01*
X011190Y001403D01*
X011175Y001459D01*
X011146Y001509D01*
X011182Y001431D02*
X011220Y001431D01*
X011220Y001332D02*
X011186Y001332D01*
X011220Y001234D02*
X011140Y001234D01*
X011140Y001135D02*
X011155Y001135D01*
X011126Y000894D02*
X010971Y000894D01*
X010802Y000938D02*
X010758Y000938D01*
X010758Y000840D02*
X010802Y000840D01*
X010739Y000741D02*
X010885Y000741D01*
X010822Y000544D02*
X016489Y000544D01*
X016489Y000446D02*
X010800Y000446D01*
X010721Y000347D02*
X016489Y000347D01*
X016489Y000643D02*
X011981Y000643D01*
X011768Y000886D02*
X011725Y000843D01*
X011768Y000886D02*
X012945Y000886D01*
X013222Y000840D02*
X016489Y000840D01*
X016489Y000938D02*
X013222Y000938D01*
X013222Y001037D02*
X016489Y001037D01*
X016489Y000741D02*
X013222Y000741D01*
X012945Y001398D02*
X014520Y002973D01*
X014520Y012748D01*
X014298Y012660D02*
X012898Y012660D01*
X012898Y012758D02*
X014281Y012758D01*
X014306Y012857D02*
X012898Y012857D01*
X012898Y012955D02*
X014394Y012955D01*
X014534Y013152D02*
X012898Y013152D01*
X012898Y013054D02*
X014633Y013054D01*
X014646Y012955D02*
X014731Y012955D01*
X014734Y012857D02*
X014830Y012857D01*
X014759Y012758D02*
X014928Y012758D01*
X015027Y012660D02*
X014742Y012660D01*
X014671Y012561D02*
X015125Y012561D01*
X015157Y012463D02*
X014670Y012463D01*
X014670Y012364D02*
X015157Y012364D01*
X015157Y012266D02*
X014670Y012266D01*
X014670Y012167D02*
X015157Y012167D01*
X015157Y012069D02*
X014670Y012069D01*
X014670Y011970D02*
X015157Y011970D01*
X015157Y011872D02*
X014670Y011872D01*
X014670Y011773D02*
X015157Y011773D01*
X015157Y011675D02*
X014670Y011675D01*
X014670Y011576D02*
X015157Y011576D01*
X015157Y011478D02*
X014670Y011478D01*
X014670Y011379D02*
X015157Y011379D01*
X015157Y011281D02*
X014670Y011281D01*
X014670Y011182D02*
X015157Y011182D01*
X015157Y011084D02*
X014670Y011084D01*
X014670Y010985D02*
X015157Y010985D01*
X015157Y010887D02*
X014670Y010887D01*
X014670Y010788D02*
X015157Y010788D01*
X015157Y010690D02*
X014670Y010690D01*
X014670Y010591D02*
X015157Y010591D01*
X015157Y010493D02*
X014670Y010493D01*
X014670Y010394D02*
X015157Y010394D01*
X015157Y010296D02*
X014670Y010296D01*
X014670Y010197D02*
X015157Y010197D01*
X015157Y010099D02*
X014670Y010099D01*
X014670Y010000D02*
X015157Y010000D01*
X015157Y009902D02*
X014670Y009902D01*
X014670Y009803D02*
X015157Y009803D01*
X015157Y009705D02*
X014670Y009705D01*
X014670Y009606D02*
X015157Y009606D01*
X015157Y009508D02*
X014670Y009508D01*
X014670Y009409D02*
X015157Y009409D01*
X015157Y009311D02*
X014670Y009311D01*
X014670Y009212D02*
X015157Y009212D01*
X015157Y009114D02*
X014670Y009114D01*
X014670Y009015D02*
X015089Y009015D01*
X015028Y008917D02*
X014670Y008917D01*
X014670Y008818D02*
X015009Y008818D01*
X015023Y008720D02*
X014670Y008720D01*
X014670Y008621D02*
X015076Y008621D01*
X015226Y008523D02*
X014670Y008523D01*
X015307Y008811D02*
X015307Y012591D01*
X013268Y014630D01*
X013268Y015804D01*
X013087Y015985D01*
X012922Y015812D02*
X012684Y015812D01*
X012692Y015910D02*
X012859Y015910D01*
X012848Y016009D02*
X012674Y016009D01*
X012623Y016107D02*
X012879Y016107D01*
X012643Y015713D02*
X013118Y015713D01*
X013118Y015615D02*
X012549Y015615D01*
X012117Y015122D02*
X005280Y015122D01*
X005083Y015319D02*
X001678Y015319D01*
X001678Y015221D02*
X004984Y015221D01*
X004886Y015122D02*
X001678Y015122D01*
X001678Y015024D02*
X004787Y015024D01*
X004689Y014925D02*
X001678Y014925D01*
X001678Y014827D02*
X004590Y014827D01*
X004492Y014728D02*
X001678Y014728D01*
X001678Y014630D02*
X004393Y014630D01*
X004295Y014531D02*
X003226Y014531D01*
X003238Y014526D02*
X003150Y014562D01*
X003055Y014562D01*
X002967Y014526D01*
X002900Y014459D01*
X002864Y014371D01*
X002864Y014276D01*
X002900Y014188D01*
X002967Y014121D01*
X003055Y014084D01*
X003150Y014084D01*
X003238Y014121D01*
X003301Y014184D01*
X004342Y014184D01*
X006407Y016250D01*
X006497Y016250D01*
X006585Y016286D01*
X006652Y016353D01*
X006688Y016441D01*
X006688Y016536D01*
X006652Y016624D01*
X006585Y016691D01*
X006497Y016728D01*
X006402Y016728D01*
X006314Y016691D01*
X006247Y016624D01*
X006210Y016536D01*
X006210Y016447D01*
X004226Y014463D01*
X003301Y014463D01*
X003238Y014526D01*
X002980Y014531D02*
X001678Y014531D01*
X001678Y014433D02*
X002889Y014433D01*
X002864Y014334D02*
X001678Y014334D01*
X001678Y014236D02*
X002880Y014236D01*
X002951Y014137D02*
X001678Y014137D01*
X001678Y014039D02*
X012195Y014039D01*
X012195Y014137D02*
X003255Y014137D01*
X004393Y014236D02*
X012195Y014236D01*
X012195Y013940D02*
X001678Y013940D01*
X001678Y013842D02*
X012195Y013842D01*
X012748Y014185D02*
X012780Y014189D01*
X012748Y014185D02*
X012748Y004288D01*
X013930Y003418D02*
X013930Y012158D01*
X014151Y012069D02*
X014370Y012069D01*
X014370Y012167D02*
X014169Y012167D01*
X014144Y012266D02*
X014370Y012266D01*
X014370Y012364D02*
X014056Y012364D01*
X013803Y012364D02*
X012898Y012364D01*
X012898Y012266D02*
X013715Y012266D01*
X013690Y012167D02*
X012898Y012167D01*
X012898Y012069D02*
X013708Y012069D01*
X013779Y011970D02*
X012898Y011970D01*
X012898Y011872D02*
X013780Y011872D01*
X014370Y012463D02*
X012898Y012463D01*
X012898Y012561D02*
X014369Y012561D01*
X014436Y013251D02*
X012898Y013251D01*
X012898Y013349D02*
X014337Y013349D01*
X014239Y013448D02*
X012898Y013448D01*
X012898Y013546D02*
X014140Y013546D01*
X014042Y013645D02*
X012898Y013645D01*
X012898Y013743D02*
X013943Y013743D01*
X013845Y013842D02*
X012898Y013842D01*
X012898Y013940D02*
X013746Y013940D01*
X013648Y014039D02*
X012967Y014039D01*
X013017Y014137D02*
X013549Y014137D01*
X013451Y014236D02*
X013019Y014236D01*
X012973Y014334D02*
X013352Y014334D01*
X013496Y014748D02*
X015906Y012339D01*
X015906Y008815D01*
X015898Y008807D01*
X015621Y008917D02*
X015587Y008917D01*
X015604Y008876D02*
X015560Y008980D01*
X015476Y009064D01*
X015457Y009072D01*
X015457Y012575D01*
X015756Y012277D01*
X015756Y009071D01*
X015729Y009060D01*
X015645Y008976D01*
X015604Y008876D01*
X015592Y008720D02*
X015612Y008720D01*
X015663Y008621D02*
X015539Y008621D01*
X015389Y008523D02*
X015807Y008523D01*
X015684Y009015D02*
X015525Y009015D01*
X015457Y009114D02*
X015756Y009114D01*
X015756Y009212D02*
X015457Y009212D01*
X015457Y009311D02*
X015756Y009311D01*
X015756Y009409D02*
X015457Y009409D01*
X015457Y009508D02*
X015756Y009508D01*
X015756Y009606D02*
X015457Y009606D01*
X015457Y009705D02*
X015756Y009705D01*
X015756Y009803D02*
X015457Y009803D01*
X015457Y009902D02*
X015756Y009902D01*
X015756Y010000D02*
X015457Y010000D01*
X015457Y010099D02*
X015756Y010099D01*
X015756Y010197D02*
X015457Y010197D01*
X015457Y010296D02*
X015756Y010296D01*
X015756Y010394D02*
X015457Y010394D01*
X015457Y010493D02*
X015756Y010493D01*
X015756Y010591D02*
X015457Y010591D01*
X015457Y010690D02*
X015756Y010690D01*
X015756Y010788D02*
X015457Y010788D01*
X015457Y010887D02*
X015756Y010887D01*
X015756Y010985D02*
X015457Y010985D01*
X015457Y011084D02*
X015756Y011084D01*
X015756Y011182D02*
X015457Y011182D01*
X015457Y011281D02*
X015756Y011281D01*
X015756Y011379D02*
X015457Y011379D01*
X015457Y011478D02*
X015756Y011478D01*
X015756Y011576D02*
X015457Y011576D01*
X015457Y011675D02*
X015756Y011675D01*
X015756Y011773D02*
X015457Y011773D01*
X015457Y011872D02*
X015756Y011872D01*
X015756Y011970D02*
X015457Y011970D01*
X015457Y012069D02*
X015756Y012069D01*
X015756Y012167D02*
X015457Y012167D01*
X015457Y012266D02*
X015756Y012266D01*
X015669Y012364D02*
X015457Y012364D01*
X015457Y012463D02*
X015570Y012463D01*
X015472Y012561D02*
X015457Y012561D01*
X015552Y014760D02*
X015150Y014760D01*
X014520Y015390D01*
X014520Y017079D01*
X013619Y017981D01*
X012918Y017981D01*
X012699Y018077D02*
X012129Y018077D01*
X012227Y017979D02*
X012679Y017979D01*
X012679Y017933D02*
X012715Y017845D01*
X012741Y017820D01*
X012386Y017820D01*
X010629Y019577D01*
X010427Y019577D01*
X010411Y019593D01*
X014462Y019593D01*
X015864Y018192D01*
X015864Y018102D01*
X015900Y018015D01*
X015916Y017999D01*
X015531Y017999D01*
X015531Y018032D01*
X015494Y018120D01*
X015427Y018187D01*
X015339Y018224D01*
X015244Y018224D01*
X015156Y018187D01*
X015089Y018120D01*
X015053Y018032D01*
X015053Y017958D01*
X015006Y017911D01*
X015006Y017911D01*
X014741Y017646D01*
X014654Y017559D01*
X014654Y017158D01*
X013769Y018043D01*
X013681Y018131D01*
X013106Y018131D01*
X013053Y018183D01*
X012965Y018220D01*
X012870Y018220D01*
X012782Y018183D01*
X012715Y018116D01*
X012679Y018028D01*
X012679Y017933D01*
X012701Y017880D02*
X012326Y017880D01*
X012030Y018176D02*
X012774Y018176D01*
X013061Y018176D02*
X015145Y018176D01*
X015071Y018077D02*
X013734Y018077D01*
X013833Y017979D02*
X015053Y017979D01*
X014975Y017880D02*
X013931Y017880D01*
X014030Y017782D02*
X014876Y017782D01*
X014778Y017683D02*
X014128Y017683D01*
X014227Y017585D02*
X014679Y017585D01*
X014741Y017646D02*
X014741Y017646D01*
X014654Y017486D02*
X014325Y017486D01*
X014424Y017388D02*
X014654Y017388D01*
X014654Y017289D02*
X014522Y017289D01*
X014621Y017191D02*
X014654Y017191D01*
X013906Y016698D02*
X012299Y016698D01*
X012298Y016797D02*
X013831Y016797D01*
X013732Y016895D02*
X012257Y016895D01*
X012173Y016994D02*
X013634Y016994D01*
X013535Y017092D02*
X004196Y017092D01*
X004195Y016994D02*
X011749Y016994D01*
X011665Y016895D02*
X004147Y016895D01*
X004148Y017191D02*
X013437Y017191D01*
X013906Y016600D02*
X012273Y016600D01*
X011624Y016698D02*
X006568Y016698D01*
X006662Y016600D02*
X007991Y016600D01*
X007896Y016501D02*
X006688Y016501D01*
X006672Y016403D02*
X007855Y016403D01*
X007841Y016304D02*
X006603Y016304D01*
X006363Y016206D02*
X007845Y016206D01*
X007886Y016107D02*
X006265Y016107D01*
X006166Y016009D02*
X007967Y016009D01*
X006330Y016698D02*
X001678Y016698D01*
X001678Y016600D02*
X006236Y016600D01*
X006210Y016501D02*
X001678Y016501D01*
X001678Y016403D02*
X006166Y016403D01*
X006068Y016304D02*
X001678Y016304D01*
X001678Y016206D02*
X005969Y016206D01*
X005871Y016107D02*
X001678Y016107D01*
X001678Y016009D02*
X005772Y016009D01*
X005674Y015910D02*
X001678Y015910D01*
X001678Y015812D02*
X005575Y015812D01*
X005477Y015713D02*
X001678Y015713D01*
X001678Y015615D02*
X005378Y015615D01*
X005280Y015516D02*
X001678Y015516D01*
X001678Y015418D02*
X005181Y015418D01*
X003768Y016895D02*
X001678Y016895D01*
X001678Y016797D02*
X011624Y016797D01*
X011909Y017289D02*
X004116Y017289D01*
X003798Y017289D02*
X001678Y017289D01*
X001678Y017191D02*
X003766Y017191D01*
X003718Y017092D02*
X001678Y017092D01*
X001678Y016994D02*
X003719Y016994D01*
X003798Y017388D02*
X001678Y017388D01*
X001678Y017486D02*
X003798Y017486D01*
X003798Y017585D02*
X001678Y017585D01*
X001678Y017683D02*
X003832Y017683D01*
X003873Y017782D02*
X001678Y017782D01*
X001678Y017880D02*
X003949Y017880D01*
X004047Y017979D02*
X001678Y017979D01*
X001678Y018077D02*
X004270Y018077D01*
X005495Y019949D02*
X006128Y019949D01*
X006056Y020047D02*
X005567Y020047D01*
X005607Y020146D02*
X006016Y020146D01*
X006016Y020244D02*
X005607Y020244D01*
X005589Y020343D02*
X006034Y020343D01*
X006076Y020441D02*
X005547Y020441D01*
X005448Y020540D02*
X006174Y020540D01*
X006629Y020540D02*
X018654Y020540D01*
X018654Y020638D02*
X003699Y020638D01*
X003699Y020540D02*
X004993Y020540D01*
X004895Y020441D02*
X003699Y020441D01*
X003699Y020343D02*
X004853Y020343D01*
X004835Y020244D02*
X003699Y020244D01*
X003657Y020146D02*
X004835Y020146D01*
X006728Y020441D02*
X018654Y020441D01*
X018654Y020343D02*
X006770Y020343D01*
X006788Y020244D02*
X018654Y020244D01*
X018654Y020146D02*
X006788Y020146D01*
X006431Y018077D02*
X011735Y018077D01*
X011833Y017979D02*
X006484Y017979D01*
X009216Y019358D02*
X001678Y019358D01*
X001678Y019456D02*
X009202Y019456D01*
X009231Y019555D02*
X001678Y019555D01*
X001678Y019653D02*
X009337Y019653D01*
X009558Y019752D02*
X001678Y019752D01*
X001678Y019259D02*
X009282Y019259D01*
X009601Y019259D02*
X009675Y019259D01*
X009995Y019259D02*
X010069Y019259D01*
X010388Y019259D02*
X010553Y019259D01*
X010651Y019161D02*
X001678Y019161D01*
X001678Y019062D02*
X010750Y019062D01*
X010848Y018964D02*
X001678Y018964D01*
X001678Y018865D02*
X010947Y018865D01*
X011045Y018767D02*
X001678Y018767D01*
X001678Y018668D02*
X011144Y018668D01*
X011242Y018570D02*
X001678Y018570D01*
X001678Y018471D02*
X011341Y018471D01*
X011439Y018373D02*
X001678Y018373D01*
X001678Y018274D02*
X011538Y018274D01*
X011636Y018176D02*
X001678Y018176D01*
X009512Y011122D02*
X009512Y008701D01*
X009672Y008523D02*
X010630Y008523D01*
X010630Y008621D02*
X009738Y008621D01*
X009751Y008720D02*
X010630Y008720D01*
X010630Y008818D02*
X009723Y008818D01*
X009662Y008917D02*
X010630Y008917D01*
X010630Y009015D02*
X009662Y009015D01*
X009662Y009114D02*
X010630Y009114D01*
X010630Y009212D02*
X009662Y009212D01*
X009662Y009311D02*
X010630Y009311D01*
X010630Y009409D02*
X009662Y009409D01*
X009662Y009508D02*
X010630Y009508D01*
X010630Y009606D02*
X009662Y009606D01*
X009662Y009705D02*
X010630Y009705D01*
X010630Y009803D02*
X009662Y009803D01*
X009662Y009902D02*
X010630Y009902D01*
X010630Y010000D02*
X009662Y010000D01*
X009662Y010099D02*
X010630Y010099D01*
X010630Y010197D02*
X009662Y010197D01*
X009662Y010296D02*
X010630Y010296D01*
X010630Y010394D02*
X009662Y010394D01*
X009662Y010493D02*
X010630Y010493D01*
X010630Y010591D02*
X009662Y010591D01*
X009662Y010690D02*
X010630Y010690D01*
X010630Y010788D02*
X009662Y010788D01*
X009662Y010887D02*
X010630Y010887D01*
X010630Y010985D02*
X009713Y010985D01*
X009751Y011084D02*
X010630Y011084D01*
X010630Y011182D02*
X009746Y011182D01*
X009692Y011281D02*
X010630Y011281D01*
X009362Y010493D02*
X002529Y010493D01*
X002683Y010394D02*
X009362Y010394D01*
X009362Y010296D02*
X002778Y010296D01*
X002819Y010197D02*
X009362Y010197D01*
X009362Y010099D02*
X002859Y010099D01*
X002859Y010000D02*
X009362Y010000D01*
X009362Y009902D02*
X002859Y009902D01*
X002825Y009803D02*
X009362Y009803D01*
X009362Y009705D02*
X002785Y009705D01*
X002698Y009606D02*
X009362Y009606D01*
X009362Y009508D02*
X002565Y009508D01*
X009493Y004090D02*
X009499Y004090D01*
X009343Y002910D02*
X009347Y002906D01*
X009343Y002910D02*
X009343Y001910D01*
X009343Y001579D01*
X009784Y001138D01*
X010585Y001138D01*
X010589Y001134D01*
X010758Y001135D02*
X010802Y001135D01*
X010802Y001234D02*
X010729Y001234D01*
X010730Y001037D02*
X010830Y001037D01*
X010971Y001374D02*
X010971Y001374D01*
X010971Y001431D02*
X010971Y001431D01*
X010971Y001529D02*
X010971Y001529D01*
X010816Y001529D02*
X010673Y001529D01*
X010758Y001431D02*
X010759Y001431D01*
X010589Y001374D02*
X010054Y001910D01*
X009855Y001910D01*
X009617Y001923D02*
X009581Y001923D01*
X009581Y001825D02*
X009617Y001825D01*
X009617Y001726D02*
X009581Y001726D01*
X009507Y001628D02*
X010124Y001628D01*
X010222Y001529D02*
X009605Y001529D01*
X009704Y001431D02*
X010321Y001431D01*
X010419Y001332D02*
X010046Y001332D01*
X009617Y002022D02*
X009581Y002022D01*
X009581Y002120D02*
X009617Y002120D01*
X009493Y002416D02*
X010364Y002416D01*
X010439Y002514D02*
X009493Y002514D01*
X009493Y002613D02*
X010420Y002613D01*
X010420Y002711D02*
X010057Y002711D01*
X009534Y002711D02*
X009493Y002711D01*
X011284Y000840D02*
X011467Y000840D01*
X011467Y000938D02*
X011382Y000938D01*
X011696Y001135D02*
X011754Y001135D01*
X011754Y001234D02*
X011696Y001234D01*
X011696Y001332D02*
X011754Y001332D01*
X012032Y001529D02*
X012668Y001529D01*
X012718Y001628D02*
X012028Y001628D01*
X011948Y001726D02*
X013061Y001726D01*
X013496Y014748D02*
X013496Y015981D01*
X015197Y014925D02*
X015378Y014925D01*
X015433Y015315D02*
X017115Y015315D01*
X017276Y015516D02*
X017422Y015516D01*
X017356Y015615D02*
X019496Y015615D01*
X019496Y015713D02*
X017361Y015713D01*
X017361Y015812D02*
X019496Y015812D01*
X019496Y015910D02*
X017361Y015910D01*
X017361Y016009D02*
X019496Y016009D01*
X019496Y016107D02*
X017361Y016107D01*
X017361Y016206D02*
X019496Y016206D01*
X019496Y016304D02*
X017361Y016304D01*
X017361Y016403D02*
X019496Y016403D01*
X019496Y016501D02*
X017361Y016501D01*
X017361Y016600D02*
X019496Y016600D01*
X019496Y016698D02*
X017361Y016698D01*
X017361Y016797D02*
X019496Y016797D01*
X019496Y016895D02*
X017361Y016895D01*
X017361Y016994D02*
X019496Y016994D01*
X018654Y018964D02*
X016948Y018964D01*
X016866Y019062D02*
X018654Y019062D01*
X016591Y017436D02*
X016197Y017436D01*
X016197Y017069D01*
X016197Y017069D01*
X016591Y017069D01*
X016591Y017069D01*
X016591Y017436D01*
X016591Y017388D02*
X016591Y017388D01*
X016591Y017289D02*
X016591Y017289D01*
X016591Y017191D02*
X016591Y017191D01*
X016591Y017092D02*
X016591Y017092D01*
X016591Y016994D02*
X016591Y016994D01*
X016591Y016895D02*
X016591Y016895D01*
X016591Y016797D02*
X016591Y016797D01*
X016591Y016698D02*
X016591Y016698D01*
X016591Y016600D02*
X016591Y016600D01*
X016591Y016501D02*
X016591Y016501D01*
X016591Y016403D02*
X016591Y016403D01*
X016591Y016304D02*
X016591Y016304D01*
X016591Y016206D02*
X016591Y016206D01*
X016591Y016107D02*
X016591Y016107D01*
X016591Y016009D02*
X016591Y016009D01*
X016591Y015910D02*
X016591Y015910D01*
X016591Y015869D02*
X016591Y015868D01*
X016224Y015868D01*
X016197Y015868D01*
X016197Y015869D01*
X016591Y015869D01*
X016591Y015812D02*
X016591Y015812D01*
X016591Y015713D02*
X016591Y015713D01*
X016591Y015615D02*
X016591Y015615D01*
X016591Y015516D02*
X016591Y015516D01*
X016197Y015516D02*
X016197Y015516D01*
X016197Y015615D02*
X016197Y015615D01*
X016197Y015713D02*
X016197Y015713D01*
X016197Y015812D02*
X016197Y015812D01*
X016197Y015910D02*
X016197Y015910D01*
X016197Y016009D02*
X016197Y016009D01*
X016197Y016107D02*
X016197Y016107D01*
X016197Y016206D02*
X016197Y016206D01*
X016197Y016304D02*
X016197Y016304D01*
X016197Y016403D02*
X016197Y016403D01*
X016197Y016501D02*
X016197Y016501D01*
X016197Y016600D02*
X016197Y016600D01*
X016197Y016656D02*
X016197Y016656D01*
X016197Y016698D02*
X016197Y016698D01*
X016197Y016797D02*
X016197Y016797D01*
X016197Y016895D02*
X016197Y016895D01*
X016197Y016994D02*
X016197Y016994D01*
X016197Y017092D02*
X016197Y017092D01*
X016197Y017191D02*
X016197Y017191D01*
X016197Y017289D02*
X016197Y017289D01*
X016197Y017388D02*
X016197Y017388D01*
X015794Y017388D02*
X015794Y017388D01*
X015794Y017289D02*
X015794Y017289D01*
X015794Y017191D02*
X015794Y017191D01*
X015794Y017092D02*
X015794Y017092D01*
X015794Y016994D02*
X015794Y016994D01*
X015794Y016895D02*
X015794Y016895D01*
X015794Y016797D02*
X015794Y016797D01*
X015794Y016698D02*
X015794Y016698D01*
X015794Y016600D02*
X015794Y016600D01*
X015794Y016501D02*
X015794Y016501D01*
X015794Y016403D02*
X015794Y016403D01*
X015794Y016304D02*
X015794Y016304D01*
X015794Y016206D02*
X015794Y016206D01*
X015794Y016107D02*
X015794Y016107D01*
X015794Y016009D02*
X015794Y016009D01*
X015794Y015910D02*
X015794Y015910D01*
X015794Y015869D02*
X015794Y015868D01*
X015794Y015812D02*
X015794Y015812D01*
X015794Y015713D02*
X015794Y015713D01*
X015794Y015615D02*
X015794Y015615D01*
X015794Y015516D02*
X015794Y015516D01*
X015874Y018077D02*
X015512Y018077D01*
X015439Y018176D02*
X015864Y018176D01*
X015782Y018274D02*
X011932Y018274D01*
X011833Y018373D02*
X015683Y018373D01*
X015585Y018471D02*
X011735Y018471D01*
X011636Y018570D02*
X015486Y018570D01*
X015388Y018668D02*
X011538Y018668D01*
X011439Y018767D02*
X015289Y018767D01*
X015191Y018865D02*
X011341Y018865D01*
X011242Y018964D02*
X015092Y018964D01*
X014994Y019062D02*
X011144Y019062D01*
X011045Y019161D02*
X014895Y019161D01*
X014797Y019259D02*
X010947Y019259D01*
X010848Y019358D02*
X014698Y019358D01*
X014600Y019456D02*
X010750Y019456D01*
X010651Y019555D02*
X014501Y019555D01*
X011299Y016107D02*
X011201Y016107D01*
X011248Y016009D02*
X011103Y016009D01*
D19*
X012339Y017670D02*
X010571Y019437D01*
X010229Y019437D01*
X010233Y019433D01*
X010130Y019733D02*
X014520Y019733D01*
X016103Y018150D01*
X015949Y018658D02*
X014717Y019890D01*
X009894Y019890D01*
X009441Y019437D01*
X009835Y019437D02*
X010130Y019733D01*
X006449Y016489D02*
X004284Y014323D01*
X003103Y014323D01*
X014804Y015512D02*
X015000Y015315D01*
X015433Y015315D01*
X017567Y015323D02*
X017772Y015119D01*
X018859Y015119D01*
X019024Y015284D01*
D20*
X017615Y015288D02*
X017567Y015323D01*
X017615Y015288D02*
X017115Y015288D01*
X017115Y015315D01*
D21*
X015898Y008807D03*
X015307Y008811D03*
D22*
X009205Y014717D03*
X009205Y015504D03*
X009205Y016292D03*
X008221Y016292D03*
X008221Y015504D03*
X008221Y014717D03*
X022985Y003496D03*
X024953Y003496D03*
D23*
X006248Y017922D02*
X004398Y017922D01*
X004357Y017920D01*
X004317Y017914D01*
X004277Y017905D01*
X004239Y017892D01*
X004201Y017876D01*
X004166Y017856D01*
X004132Y017833D01*
X004101Y017807D01*
X004072Y017778D01*
X004046Y017747D01*
X004023Y017713D01*
X004003Y017678D01*
X003987Y017640D01*
X003974Y017602D01*
X003965Y017562D01*
X003959Y017522D01*
X003957Y017481D01*
X003957Y017044D01*
X003959Y017039D01*
X003959Y017033D01*
X003957Y017028D01*
X003953Y017024D01*
D24*
X011567Y015898D02*
X012355Y015111D01*
X012355Y004681D01*
X011370Y003697D01*
D25*
X021787Y009993D02*
X021787Y023395D01*
X026151Y023395D01*
X026151Y009993D01*
X025360Y009993D01*
X025360Y021436D01*
X025378Y021454D01*
X025419Y021553D01*
X025419Y021660D01*
X025378Y021759D01*
X025302Y021835D01*
X025204Y021876D01*
X025096Y021876D01*
X024998Y021835D01*
X024922Y021759D01*
X024881Y021660D01*
X024881Y021553D01*
X024922Y021454D01*
X024940Y021436D01*
X024940Y009993D01*
X021787Y009993D01*
X021787Y010136D02*
X024940Y010136D01*
X024940Y010294D02*
X021787Y010294D01*
X021787Y010453D02*
X024940Y010453D01*
X024940Y010611D02*
X021787Y010611D01*
X021787Y010770D02*
X024940Y010770D01*
X024940Y010928D02*
X021787Y010928D01*
X021787Y011087D02*
X024940Y011087D01*
X024940Y011245D02*
X021787Y011245D01*
X021787Y011404D02*
X024940Y011404D01*
X024940Y011562D02*
X021787Y011562D01*
X021787Y011721D02*
X024940Y011721D01*
X024940Y011879D02*
X021787Y011879D01*
X021787Y012038D02*
X024940Y012038D01*
X024940Y012196D02*
X021787Y012196D01*
X021787Y012355D02*
X024940Y012355D01*
X024940Y012513D02*
X021787Y012513D01*
X021787Y012672D02*
X024940Y012672D01*
X024940Y012830D02*
X021787Y012830D01*
X021787Y012989D02*
X024940Y012989D01*
X024940Y013147D02*
X021787Y013147D01*
X021787Y013306D02*
X024940Y013306D01*
X024940Y013464D02*
X021787Y013464D01*
X021787Y013623D02*
X024940Y013623D01*
X024940Y013781D02*
X021787Y013781D01*
X021787Y013940D02*
X024940Y013940D01*
X024940Y014098D02*
X021787Y014098D01*
X021787Y014257D02*
X024940Y014257D01*
X024940Y014415D02*
X021787Y014415D01*
X021787Y014574D02*
X024940Y014574D01*
X024940Y014732D02*
X021787Y014732D01*
X021787Y014891D02*
X024940Y014891D01*
X024940Y015049D02*
X021787Y015049D01*
X021787Y015208D02*
X024940Y015208D01*
X024940Y015366D02*
X021787Y015366D01*
X021787Y015525D02*
X024940Y015525D01*
X024940Y015683D02*
X021787Y015683D01*
X021787Y015842D02*
X024940Y015842D01*
X024940Y016000D02*
X021787Y016000D01*
X021787Y016159D02*
X024940Y016159D01*
X024940Y016317D02*
X021787Y016317D01*
X021787Y016476D02*
X024940Y016476D01*
X024940Y016634D02*
X021787Y016634D01*
X021787Y016793D02*
X024940Y016793D01*
X024940Y016951D02*
X021787Y016951D01*
X021787Y017110D02*
X024940Y017110D01*
X024940Y017268D02*
X021787Y017268D01*
X021787Y017427D02*
X024940Y017427D01*
X024940Y017585D02*
X021787Y017585D01*
X021787Y017744D02*
X024940Y017744D01*
X024940Y017902D02*
X021787Y017902D01*
X021787Y018061D02*
X024940Y018061D01*
X024940Y018219D02*
X021787Y018219D01*
X021787Y018378D02*
X024940Y018378D01*
X024940Y018536D02*
X021787Y018536D01*
X021787Y018695D02*
X024940Y018695D01*
X024940Y018853D02*
X021787Y018853D01*
X021787Y019012D02*
X024940Y019012D01*
X024940Y019170D02*
X021787Y019170D01*
X021787Y019329D02*
X024940Y019329D01*
X024940Y019487D02*
X021787Y019487D01*
X021787Y019646D02*
X024940Y019646D01*
X024940Y019804D02*
X021787Y019804D01*
X021787Y019963D02*
X024940Y019963D01*
X024940Y020121D02*
X021787Y020121D01*
X021787Y020280D02*
X024940Y020280D01*
X024940Y020438D02*
X021787Y020438D01*
X021787Y020597D02*
X024940Y020597D01*
X024940Y020755D02*
X021787Y020755D01*
X021787Y020914D02*
X024940Y020914D01*
X024940Y021072D02*
X021787Y021072D01*
X021787Y021231D02*
X024940Y021231D01*
X024940Y021389D02*
X021787Y021389D01*
X021787Y021548D02*
X024883Y021548D01*
X024900Y021706D02*
X021787Y021706D01*
X021787Y021865D02*
X025069Y021865D01*
X025231Y021865D02*
X026151Y021865D01*
X026151Y022023D02*
X021787Y022023D01*
X021787Y022182D02*
X026151Y022182D01*
X026151Y022340D02*
X021787Y022340D01*
X021787Y022499D02*
X026151Y022499D01*
X026151Y022657D02*
X021787Y022657D01*
X021787Y022816D02*
X026151Y022816D01*
X026151Y022974D02*
X021787Y022974D01*
X021787Y023133D02*
X026151Y023133D01*
X026151Y023291D02*
X021787Y023291D01*
X025150Y021607D02*
X025150Y008418D01*
X024756Y008024D01*
X024756Y005465D01*
X025360Y010136D02*
X026151Y010136D01*
X026151Y010294D02*
X025360Y010294D01*
X025360Y010453D02*
X026151Y010453D01*
X026151Y010611D02*
X025360Y010611D01*
X025360Y010770D02*
X026151Y010770D01*
X026151Y010928D02*
X025360Y010928D01*
X025360Y011087D02*
X026151Y011087D01*
X026151Y011245D02*
X025360Y011245D01*
X025360Y011404D02*
X026151Y011404D01*
X026151Y011562D02*
X025360Y011562D01*
X025360Y011721D02*
X026151Y011721D01*
X026151Y011879D02*
X025360Y011879D01*
X025360Y012038D02*
X026151Y012038D01*
X026151Y012196D02*
X025360Y012196D01*
X025360Y012355D02*
X026151Y012355D01*
X026151Y012513D02*
X025360Y012513D01*
X025360Y012672D02*
X026151Y012672D01*
X026151Y012830D02*
X025360Y012830D01*
X025360Y012989D02*
X026151Y012989D01*
X026151Y013147D02*
X025360Y013147D01*
X025360Y013306D02*
X026151Y013306D01*
X026151Y013464D02*
X025360Y013464D01*
X025360Y013623D02*
X026151Y013623D01*
X026151Y013781D02*
X025360Y013781D01*
X025360Y013940D02*
X026151Y013940D01*
X026151Y014098D02*
X025360Y014098D01*
X025360Y014257D02*
X026151Y014257D01*
X026151Y014415D02*
X025360Y014415D01*
X025360Y014574D02*
X026151Y014574D01*
X026151Y014732D02*
X025360Y014732D01*
X025360Y014891D02*
X026151Y014891D01*
X026151Y015049D02*
X025360Y015049D01*
X025360Y015208D02*
X026151Y015208D01*
X026151Y015366D02*
X025360Y015366D01*
X025360Y015525D02*
X026151Y015525D01*
X026151Y015683D02*
X025360Y015683D01*
X025360Y015842D02*
X026151Y015842D01*
X026151Y016000D02*
X025360Y016000D01*
X025360Y016159D02*
X026151Y016159D01*
X026151Y016317D02*
X025360Y016317D01*
X025360Y016476D02*
X026151Y016476D01*
X026151Y016634D02*
X025360Y016634D01*
X025360Y016793D02*
X026151Y016793D01*
X026151Y016951D02*
X025360Y016951D01*
X025360Y017110D02*
X026151Y017110D01*
X026151Y017268D02*
X025360Y017268D01*
X025360Y017427D02*
X026151Y017427D01*
X026151Y017585D02*
X025360Y017585D01*
X025360Y017744D02*
X026151Y017744D01*
X026151Y017902D02*
X025360Y017902D01*
X025360Y018061D02*
X026151Y018061D01*
X026151Y018219D02*
X025360Y018219D01*
X025360Y018378D02*
X026151Y018378D01*
X026151Y018536D02*
X025360Y018536D01*
X025360Y018695D02*
X026151Y018695D01*
X026151Y018853D02*
X025360Y018853D01*
X025360Y019012D02*
X026151Y019012D01*
X026151Y019170D02*
X025360Y019170D01*
X025360Y019329D02*
X026151Y019329D01*
X026151Y019487D02*
X025360Y019487D01*
X025360Y019646D02*
X026151Y019646D01*
X026151Y019804D02*
X025360Y019804D01*
X025360Y019963D02*
X026151Y019963D01*
X026151Y020121D02*
X025360Y020121D01*
X025360Y020280D02*
X026151Y020280D01*
X026151Y020438D02*
X025360Y020438D01*
X025360Y020597D02*
X026151Y020597D01*
X026151Y020755D02*
X025360Y020755D01*
X025360Y020914D02*
X026151Y020914D01*
X026151Y021072D02*
X025360Y021072D01*
X025360Y021231D02*
X026151Y021231D01*
X026151Y021389D02*
X025360Y021389D01*
X025417Y021548D02*
X026151Y021548D01*
X026151Y021706D02*
X025400Y021706D01*
D26*
X025800Y001142D03*
X022138Y001138D03*
M02*
