%
M48
M72
T01C0.0118
T02C0.0236
T03C0.0315
T04C0.0394
T05C0.0472
T06C0.0787
T07C0.1102
%
T01
X8910Y2467
X10089Y2451
X10583Y2319
X11073Y2126
X11723Y2057
X12284Y2048
X12158Y3697
X11073Y3843
X10101Y3859
X10089Y5020
X11073Y5020
X12057Y5020
X13465Y4016
X10583Y548
X8910Y3845
X8910Y5026
X9512Y8701
X10191Y9404
X8617Y9404
X9512Y11122
X10780Y13142
X11520Y13536
X11758Y12554
X11766Y11565
X13290Y11557
X13930Y12158
X14520Y12748
X15313Y13526
X15205Y13969
X14882Y14252
X15552Y14760
X14804Y15512
X15794Y15869
X16197Y15869
X16591Y15869
X16994Y15869
X16994Y16282
X16994Y16656
X16591Y16656
X16591Y16282
X16197Y16282
X16197Y16656
X15794Y16656
X15794Y16282
X15794Y17069
X16197Y17069
X16591Y17069
X16994Y17069
X17815Y17638
X18087Y17008
X18455Y17471
X19370Y16898
X19370Y16536
X19378Y16181
X19024Y15284
X18111Y15378
X17567Y15323
X16780Y14772
X18246Y13223
X18849Y13227
X19386Y13032
X19386Y13426
X19386Y13819
X17288Y12674
X16388Y11776
X16390Y10937
X15609Y10935
X15609Y9951
X14920Y9979
X14235Y9987
X13349Y9400
X11766Y9404
X13306Y12739
X13050Y13896
X12780Y14189
X12943Y15306
X13087Y15985
X13496Y15981
X13264Y16622
X12477Y16819
X11855Y17556
X11477Y18122
X10650Y18095
X10189Y17095
X10187Y16487
X10575Y15111
X10575Y14717
X8811Y13536
X8731Y14321
X6449Y16489
X6248Y17922
X6250Y18650
X7040Y18650
X7827Y18650
X9441Y19437
X9835Y19437
X10229Y19437
X9991Y20455
X12156Y20424
X13528Y18985
X12581Y18119
X12918Y17981
X14394Y17650
X15292Y17985
X15593Y18278
X15949Y18658
X16103Y18150
X16733Y18859
X16093Y19243
X15902Y20418
X13928Y20420
X18256Y20418
X18260Y19839
X22122Y19414
X22122Y20398
X22122Y21382
X23500Y23154
X25154Y22101
X25150Y21607
X25863Y22367
X24288Y21382
X24288Y19414
X25863Y19414
X16396Y9951
X24756Y5465
X5957Y14729
X3894Y14721
X3103Y14323
X3894Y13737
X2317Y15357
X2317Y16056
X2707Y16819
X3957Y17044
X4481Y17075
X4282Y18642
X4282Y20225
T02
X15307Y8811
X15898Y8807
T03
X9205Y14717
X9205Y15504
X9205Y16292
X8221Y16292
X8221Y15504
X8221Y14717
X10780Y15898
X11567Y15898
X12355Y15898
X11961Y16729
X11174Y16725
X16882Y23378
X17670Y23378
X18457Y23378
X18063Y24205
X17276Y24205
X22985Y3496
X24953Y3496
T04
X3304Y20524
X2319Y20524
T05
X5221Y20221
X6402Y20221
T06
X2315Y937
X2315Y9993
X18851Y9599
X18851Y937
T07
X22138Y1138
X25800Y1142
M30
