G75*
%MOIN*%
%OFA0B0*%
%FSLAX24Y24*%
%IPPOS*%
%LPD*%
%AMOC8*
5,1,8,0,0,1.08239X$1,22.5*
%
%ADD10C,0.0867*%
%ADD11C,0.0157*%
%ADD12R,0.0276X0.0157*%
%ADD13R,0.0157X0.0276*%
%ADD14R,0.0453X0.0453*%
%ADD15R,0.0218X0.0474*%
%ADD16R,0.0789X0.0474*%
%ADD17R,0.0789X0.0867*%
%ADD18R,0.0356X0.0434*%
%ADD19R,0.0434X0.0356*%
%ADD20R,0.0434X0.0552*%
%ADD21R,0.0552X0.0789*%
%ADD22R,0.0198X0.0474*%
%ADD23R,0.0572X0.0395*%
%ADD24R,0.0415X0.0171*%
%ADD25R,0.0395X0.0671*%
%ADD26R,0.0395X0.0395*%
%ADD27R,0.0218X0.0631*%
%ADD28R,0.0789X0.0828*%
%ADD29R,0.0474X0.0867*%
%ADD30R,0.0297X0.0552*%
%ADD31C,0.0552*%
%ADD32R,0.0513X0.0395*%
%ADD33R,0.0474X0.0671*%
%ADD34R,0.0218X0.0867*%
%ADD35R,0.0950X0.0320*%
%ADD36R,0.1261X0.2049*%
%ADD37R,0.0710X0.1261*%
%ADD38C,0.0358*%
%ADD39R,0.0671X0.0671*%
%ADD40C,0.0555*%
%ADD41C,0.0476*%
%ADD42C,0.0640*%
%ADD43R,0.1582X0.1582*%
D10*
X002315Y000937D03*
X002315Y009993D03*
X018851Y009599D03*
X018851Y000937D03*
D11*
X017280Y015406D03*
X017083Y015406D03*
X016886Y015406D03*
X016689Y015406D03*
X016493Y015406D03*
X016296Y015406D03*
X016099Y015406D03*
X015902Y015406D03*
X015705Y015406D03*
X015508Y015406D03*
X015331Y015583D03*
X015331Y015780D03*
X015331Y015977D03*
X015331Y016174D03*
X015331Y016370D03*
X015331Y016567D03*
X015331Y016764D03*
X015331Y016961D03*
X015331Y017158D03*
X015331Y017355D03*
X015508Y017532D03*
X015705Y017532D03*
X015902Y017532D03*
X016099Y017532D03*
X016296Y017532D03*
X016493Y017532D03*
X016689Y017532D03*
X016886Y017532D03*
X017083Y017532D03*
X017280Y017532D03*
X017457Y017355D03*
X017457Y017158D03*
X017457Y016961D03*
X017457Y016764D03*
X017457Y016567D03*
X017457Y016370D03*
X017457Y016174D03*
X017457Y015977D03*
X017457Y015780D03*
X017457Y015583D03*
D12*
X017595Y015583D03*
X017595Y015780D03*
X017595Y015977D03*
X017595Y016174D03*
X017595Y016370D03*
X017595Y016567D03*
X017595Y016764D03*
X017595Y016961D03*
X017595Y017158D03*
X017595Y017355D03*
X015193Y017355D03*
X015193Y017158D03*
X015193Y016961D03*
X015193Y016764D03*
X015193Y016567D03*
X015193Y016370D03*
X015193Y016174D03*
X015193Y015977D03*
X015193Y015780D03*
X015193Y015583D03*
D13*
X015508Y015268D03*
X015705Y015268D03*
X015902Y015268D03*
X016099Y015268D03*
X016296Y015268D03*
X016493Y015268D03*
X016689Y015268D03*
X016886Y015268D03*
X017083Y015268D03*
X017280Y015268D03*
X017280Y017670D03*
X017083Y017670D03*
X016886Y017670D03*
X016689Y017670D03*
X016493Y017670D03*
X016296Y017670D03*
X016099Y017670D03*
X015902Y017670D03*
X015705Y017670D03*
X015508Y017670D03*
D14*
X015823Y017040D03*
X016394Y017040D03*
X016965Y017040D03*
X016965Y016469D03*
X016394Y016469D03*
X015823Y016469D03*
X015823Y015898D03*
X016394Y015898D03*
X016965Y015898D03*
D15*
X018485Y016124D03*
X018741Y016124D03*
X018996Y016124D03*
X018996Y016813D03*
X018741Y016813D03*
X018485Y016813D03*
D16*
X019256Y017874D03*
X008122Y003398D03*
D17*
X019256Y020000D03*
D18*
X018244Y019260D03*
X017733Y019260D03*
X017532Y019949D03*
X017020Y019949D03*
X015217Y019099D03*
X014705Y019099D03*
X014733Y019953D03*
X014221Y019953D03*
X014189Y018099D03*
X013678Y018099D03*
X013678Y017532D03*
X013166Y017532D03*
X011571Y017563D03*
X011059Y017563D03*
X011268Y014780D03*
X011780Y014780D03*
X012142Y014780D03*
X012654Y014780D03*
X014319Y015221D03*
X014831Y015221D03*
X012126Y013079D03*
X011615Y013079D03*
X010914Y013937D03*
X010402Y013937D03*
X009493Y013937D03*
X008981Y013937D03*
X009000Y011374D03*
X009512Y011374D03*
X010355Y011370D03*
X010867Y011370D03*
X006115Y015898D03*
X005603Y015898D03*
X005430Y016500D03*
X004918Y016500D03*
X003957Y016693D03*
X003445Y016693D03*
X003241Y016059D03*
X002729Y016059D03*
X002709Y015347D03*
X003221Y015347D03*
X002768Y014126D03*
X002256Y014126D03*
X006493Y017032D03*
X007004Y017032D03*
X018296Y013823D03*
X018807Y013823D03*
X018800Y012666D03*
X018288Y012666D03*
X018800Y015654D03*
X019311Y015654D03*
X023189Y019437D03*
X023701Y019437D03*
D19*
X019248Y014937D03*
X019248Y014426D03*
X017654Y014457D03*
X017654Y013945D03*
X017646Y013181D03*
X017646Y012670D03*
X014863Y017646D03*
X014863Y018158D03*
X014229Y018634D03*
X014229Y019146D03*
X012181Y019036D03*
X012181Y018524D03*
X012181Y018067D03*
X012181Y017556D03*
X008142Y013481D03*
X008142Y012969D03*
X007473Y012973D03*
X007473Y013485D03*
X008237Y011957D03*
X008237Y011445D03*
X017142Y018607D03*
X017142Y019119D03*
X017819Y018485D03*
X018217Y018485D03*
X018217Y017973D03*
X017819Y017973D03*
D20*
X018178Y015099D03*
X018650Y015099D03*
X018650Y014430D03*
X018178Y014430D03*
D21*
X016445Y019796D03*
X015304Y019796D03*
D22*
X013115Y019103D03*
X012918Y019103D03*
X012721Y019103D03*
X012721Y018567D03*
X012918Y018567D03*
X013115Y018567D03*
D23*
X013599Y018528D03*
X013599Y019473D03*
D24*
X004916Y016056D03*
X004916Y015898D03*
X004916Y015741D03*
X004916Y015583D03*
X004916Y015426D03*
X003951Y015426D03*
X003951Y015583D03*
X003949Y015741D03*
X003951Y015902D03*
X003951Y016056D03*
D25*
X004433Y015741D03*
D26*
X002807Y014717D03*
X002217Y014717D03*
D27*
X009307Y018882D03*
X009563Y018882D03*
X009819Y018882D03*
X010075Y018882D03*
X010331Y018882D03*
X023457Y022138D03*
X023713Y022138D03*
X023969Y022138D03*
X024225Y022138D03*
X024481Y022138D03*
D28*
X025544Y023181D03*
X022394Y023181D03*
X011394Y019926D03*
X008244Y019926D03*
D29*
X008811Y008024D03*
X009402Y008024D03*
X009993Y008024D03*
X015307Y008024D03*
X015898Y008024D03*
D30*
X011154Y012040D03*
X010780Y012040D03*
X010406Y012040D03*
X009500Y012040D03*
X008752Y012040D03*
X008752Y013063D03*
X009126Y013063D03*
X009500Y013063D03*
X010406Y013063D03*
X011154Y013063D03*
D31*
X006402Y020221D03*
X005221Y020221D03*
D32*
X004355Y020654D03*
X004355Y019788D03*
X007268Y019788D03*
X007268Y020654D03*
D33*
X006697Y019335D03*
X005516Y019335D03*
X004926Y019335D03*
D34*
X016370Y021804D03*
X016626Y021804D03*
X016882Y021804D03*
X017138Y021804D03*
X017394Y021804D03*
D35*
X022939Y021372D03*
X022939Y020872D03*
X022939Y020372D03*
X022939Y019872D03*
X024999Y019872D03*
X024999Y020372D03*
X024999Y020872D03*
X024999Y021372D03*
D36*
X025741Y010977D03*
X022193Y010977D03*
X022197Y003496D03*
X023280Y001134D03*
X024658Y001134D03*
X025741Y003496D03*
D37*
X006666Y010829D03*
X005091Y010829D03*
X005091Y014660D03*
X006666Y014660D03*
D38*
X005957Y014729D03*
X006449Y016489D03*
X006248Y017922D03*
X006250Y018650D03*
X007040Y018650D03*
X007827Y018650D03*
X009441Y019437D03*
X009835Y019437D03*
X010229Y019437D03*
X009991Y020455D03*
X012156Y020424D03*
X013528Y018985D03*
X012581Y018119D03*
X012918Y017981D03*
X011855Y017556D03*
X011477Y018122D03*
X010650Y018095D03*
X010189Y017095D03*
X010187Y016487D03*
X010575Y015111D03*
X010575Y014717D03*
X011520Y013536D03*
X010780Y013142D03*
X011758Y012554D03*
X011766Y011565D03*
X013290Y011557D03*
X013930Y012158D03*
X014520Y012748D03*
X015313Y013526D03*
X015205Y013969D03*
X014882Y014252D03*
X015552Y014760D03*
X014804Y015512D03*
X013496Y015981D03*
X013087Y015985D03*
X013264Y016622D03*
X012477Y016819D03*
X012943Y015306D03*
X012780Y014189D03*
X013050Y013896D03*
X013306Y012739D03*
X015609Y010935D03*
X016390Y010937D03*
X016388Y011776D03*
X017288Y012674D03*
X018246Y013223D03*
X018849Y013227D03*
X019386Y013032D03*
X019386Y013426D03*
X019386Y013819D03*
X019024Y015284D03*
X019378Y016181D03*
X019370Y016536D03*
X019370Y016898D03*
X018455Y017471D03*
X018087Y017008D03*
X017815Y017638D03*
X016733Y018859D03*
X016093Y019243D03*
X015949Y018658D03*
X015593Y018278D03*
X015292Y017985D03*
X016103Y018150D03*
X014394Y017650D03*
X013928Y020420D03*
X015902Y020418D03*
X018256Y020418D03*
X018260Y019839D03*
X022122Y019414D03*
X022122Y020398D03*
X022122Y021382D03*
X023500Y023154D03*
X025154Y022101D03*
X025150Y021607D03*
X025863Y022367D03*
X024288Y021382D03*
X024288Y019414D03*
X025863Y019414D03*
X018111Y015378D03*
X017567Y015323D03*
X016780Y014772D03*
X016396Y009951D03*
X015609Y009951D03*
X014920Y009979D03*
X014235Y009987D03*
X013349Y009400D03*
X011766Y009404D03*
X010191Y009404D03*
X009512Y008701D03*
X008617Y009404D03*
X009512Y011122D03*
X008811Y013536D03*
X008731Y014321D03*
X004481Y017075D03*
X003957Y017044D03*
X002707Y016819D03*
X002317Y016056D03*
X002317Y015357D03*
X003103Y014323D03*
X003894Y014721D03*
X003894Y013737D03*
X004282Y018642D03*
X004282Y020225D03*
X008910Y005026D03*
X010089Y005020D03*
X011073Y005020D03*
X012057Y005020D03*
X011073Y003843D03*
X010101Y003859D03*
X008910Y003845D03*
X008910Y002467D03*
X010089Y002451D03*
X010583Y002319D03*
X011073Y002126D03*
X011723Y002057D03*
X012284Y002048D03*
X012158Y003697D03*
X013465Y004016D03*
X010583Y000548D03*
X024756Y005465D03*
D39*
X003304Y020524D03*
X002319Y020524D03*
D40*
X010780Y015898D03*
X011567Y015898D03*
X012355Y015898D03*
X011961Y016729D03*
X011174Y016725D03*
X016882Y023378D03*
X017670Y023378D03*
X018457Y023378D03*
X018063Y024205D03*
X017276Y024205D03*
D41*
X015898Y008807D03*
X015307Y008811D03*
D42*
X009205Y014717D03*
X009205Y015504D03*
X009205Y016292D03*
X008221Y016292D03*
X008221Y015504D03*
X008221Y014717D03*
X022985Y003496D03*
X024953Y003496D03*
D43*
X025800Y001142D03*
X022138Y001138D03*
M02*
