G75*
%MOIN*%
%OFA0B0*%
%FSLAX24Y24*%
%IPPOS*%
%LPD*%
%AMOC8*
5,1,8,0,0,1.08239X$1,22.5*
%
%ADD10C,0.0000*%
%ADD11C,0.0080*%
%ADD12C,0.0010*%
%ADD13C,0.0050*%
%ADD14C,0.0160*%
%ADD15R,0.0160X0.0280*%
%ADD16R,0.0280X0.0160*%
D10*
X001528Y000150D02*
X019638Y000150D01*
X019646Y000158D02*
X019646Y020827D01*
X019638Y020819D02*
X001528Y020819D01*
X001528Y000150D01*
X001921Y000937D02*
X001923Y000976D01*
X001929Y001015D01*
X001939Y001053D01*
X001952Y001090D01*
X001969Y001125D01*
X001989Y001159D01*
X002013Y001190D01*
X002040Y001219D01*
X002069Y001245D01*
X002101Y001268D01*
X002135Y001288D01*
X002171Y001304D01*
X002208Y001316D01*
X002247Y001325D01*
X002286Y001330D01*
X002325Y001331D01*
X002364Y001328D01*
X002403Y001321D01*
X002440Y001310D01*
X002477Y001296D01*
X002512Y001278D01*
X002545Y001257D01*
X002576Y001232D01*
X002604Y001205D01*
X002629Y001175D01*
X002651Y001142D01*
X002670Y001108D01*
X002685Y001072D01*
X002697Y001034D01*
X002705Y000996D01*
X002709Y000957D01*
X002709Y000917D01*
X002705Y000878D01*
X002697Y000840D01*
X002685Y000802D01*
X002670Y000766D01*
X002651Y000732D01*
X002629Y000699D01*
X002604Y000669D01*
X002576Y000642D01*
X002545Y000617D01*
X002512Y000596D01*
X002477Y000578D01*
X002440Y000564D01*
X002403Y000553D01*
X002364Y000546D01*
X002325Y000543D01*
X002286Y000544D01*
X002247Y000549D01*
X002208Y000558D01*
X002171Y000570D01*
X002135Y000586D01*
X002101Y000606D01*
X002069Y000629D01*
X002040Y000655D01*
X002013Y000684D01*
X001989Y000715D01*
X001969Y000749D01*
X001952Y000784D01*
X001939Y000821D01*
X001929Y000859D01*
X001923Y000898D01*
X001921Y000937D01*
X001921Y009993D02*
X001923Y010032D01*
X001929Y010071D01*
X001939Y010109D01*
X001952Y010146D01*
X001969Y010181D01*
X001989Y010215D01*
X002013Y010246D01*
X002040Y010275D01*
X002069Y010301D01*
X002101Y010324D01*
X002135Y010344D01*
X002171Y010360D01*
X002208Y010372D01*
X002247Y010381D01*
X002286Y010386D01*
X002325Y010387D01*
X002364Y010384D01*
X002403Y010377D01*
X002440Y010366D01*
X002477Y010352D01*
X002512Y010334D01*
X002545Y010313D01*
X002576Y010288D01*
X002604Y010261D01*
X002629Y010231D01*
X002651Y010198D01*
X002670Y010164D01*
X002685Y010128D01*
X002697Y010090D01*
X002705Y010052D01*
X002709Y010013D01*
X002709Y009973D01*
X002705Y009934D01*
X002697Y009896D01*
X002685Y009858D01*
X002670Y009822D01*
X002651Y009788D01*
X002629Y009755D01*
X002604Y009725D01*
X002576Y009698D01*
X002545Y009673D01*
X002512Y009652D01*
X002477Y009634D01*
X002440Y009620D01*
X002403Y009609D01*
X002364Y009602D01*
X002325Y009599D01*
X002286Y009600D01*
X002247Y009605D01*
X002208Y009614D01*
X002171Y009626D01*
X002135Y009642D01*
X002101Y009662D01*
X002069Y009685D01*
X002040Y009711D01*
X002013Y009740D01*
X001989Y009771D01*
X001969Y009805D01*
X001952Y009840D01*
X001939Y009877D01*
X001929Y009915D01*
X001923Y009954D01*
X001921Y009993D01*
X004985Y020221D02*
X004987Y020251D01*
X004993Y020281D01*
X005002Y020310D01*
X005015Y020337D01*
X005032Y020362D01*
X005051Y020385D01*
X005074Y020406D01*
X005099Y020423D01*
X005125Y020437D01*
X005154Y020447D01*
X005183Y020454D01*
X005213Y020457D01*
X005244Y020456D01*
X005274Y020451D01*
X005303Y020442D01*
X005330Y020430D01*
X005356Y020415D01*
X005380Y020396D01*
X005401Y020374D01*
X005419Y020350D01*
X005434Y020323D01*
X005445Y020295D01*
X005453Y020266D01*
X005457Y020236D01*
X005457Y020206D01*
X005453Y020176D01*
X005445Y020147D01*
X005434Y020119D01*
X005419Y020092D01*
X005401Y020068D01*
X005380Y020046D01*
X005356Y020027D01*
X005330Y020012D01*
X005303Y020000D01*
X005274Y019991D01*
X005244Y019986D01*
X005213Y019985D01*
X005183Y019988D01*
X005154Y019995D01*
X005125Y020005D01*
X005099Y020019D01*
X005074Y020036D01*
X005051Y020057D01*
X005032Y020080D01*
X005015Y020105D01*
X005002Y020132D01*
X004993Y020161D01*
X004987Y020191D01*
X004985Y020221D01*
X006166Y020221D02*
X006168Y020251D01*
X006174Y020281D01*
X006183Y020310D01*
X006196Y020337D01*
X006213Y020362D01*
X006232Y020385D01*
X006255Y020406D01*
X006280Y020423D01*
X006306Y020437D01*
X006335Y020447D01*
X006364Y020454D01*
X006394Y020457D01*
X006425Y020456D01*
X006455Y020451D01*
X006484Y020442D01*
X006511Y020430D01*
X006537Y020415D01*
X006561Y020396D01*
X006582Y020374D01*
X006600Y020350D01*
X006615Y020323D01*
X006626Y020295D01*
X006634Y020266D01*
X006638Y020236D01*
X006638Y020206D01*
X006634Y020176D01*
X006626Y020147D01*
X006615Y020119D01*
X006600Y020092D01*
X006582Y020068D01*
X006561Y020046D01*
X006537Y020027D01*
X006511Y020012D01*
X006484Y020000D01*
X006455Y019991D01*
X006425Y019986D01*
X006394Y019985D01*
X006364Y019988D01*
X006335Y019995D01*
X006306Y020005D01*
X006280Y020019D01*
X006255Y020036D01*
X006232Y020057D01*
X006213Y020080D01*
X006196Y020105D01*
X006183Y020132D01*
X006174Y020161D01*
X006168Y020191D01*
X006166Y020221D01*
X015544Y021016D02*
X015544Y024559D01*
X019244Y024559D01*
X019244Y022201D01*
X018221Y022201D01*
X018221Y021016D01*
X015544Y021016D01*
X021607Y023575D02*
X021607Y007827D01*
X022788Y007827D01*
X022788Y006646D01*
X021607Y006646D01*
X021607Y002512D01*
X026331Y002512D01*
X026331Y006646D01*
X025150Y006646D01*
X025150Y007827D01*
X026331Y007827D01*
X026331Y023575D01*
X021607Y023575D01*
X018457Y009599D02*
X018459Y009638D01*
X018465Y009677D01*
X018475Y009715D01*
X018488Y009752D01*
X018505Y009787D01*
X018525Y009821D01*
X018549Y009852D01*
X018576Y009881D01*
X018605Y009907D01*
X018637Y009930D01*
X018671Y009950D01*
X018707Y009966D01*
X018744Y009978D01*
X018783Y009987D01*
X018822Y009992D01*
X018861Y009993D01*
X018900Y009990D01*
X018939Y009983D01*
X018976Y009972D01*
X019013Y009958D01*
X019048Y009940D01*
X019081Y009919D01*
X019112Y009894D01*
X019140Y009867D01*
X019165Y009837D01*
X019187Y009804D01*
X019206Y009770D01*
X019221Y009734D01*
X019233Y009696D01*
X019241Y009658D01*
X019245Y009619D01*
X019245Y009579D01*
X019241Y009540D01*
X019233Y009502D01*
X019221Y009464D01*
X019206Y009428D01*
X019187Y009394D01*
X019165Y009361D01*
X019140Y009331D01*
X019112Y009304D01*
X019081Y009279D01*
X019048Y009258D01*
X019013Y009240D01*
X018976Y009226D01*
X018939Y009215D01*
X018900Y009208D01*
X018861Y009205D01*
X018822Y009206D01*
X018783Y009211D01*
X018744Y009220D01*
X018707Y009232D01*
X018671Y009248D01*
X018637Y009268D01*
X018605Y009291D01*
X018576Y009317D01*
X018549Y009346D01*
X018525Y009377D01*
X018505Y009411D01*
X018488Y009446D01*
X018475Y009483D01*
X018465Y009521D01*
X018459Y009560D01*
X018457Y009599D01*
X022185Y002119D02*
X022185Y000150D01*
X025741Y000150D01*
X025741Y002119D01*
X022185Y002119D01*
X018457Y000937D02*
X018459Y000976D01*
X018465Y001015D01*
X018475Y001053D01*
X018488Y001090D01*
X018505Y001125D01*
X018525Y001159D01*
X018549Y001190D01*
X018576Y001219D01*
X018605Y001245D01*
X018637Y001268D01*
X018671Y001288D01*
X018707Y001304D01*
X018744Y001316D01*
X018783Y001325D01*
X018822Y001330D01*
X018861Y001331D01*
X018900Y001328D01*
X018939Y001321D01*
X018976Y001310D01*
X019013Y001296D01*
X019048Y001278D01*
X019081Y001257D01*
X019112Y001232D01*
X019140Y001205D01*
X019165Y001175D01*
X019187Y001142D01*
X019206Y001108D01*
X019221Y001072D01*
X019233Y001034D01*
X019241Y000996D01*
X019245Y000957D01*
X019245Y000917D01*
X019241Y000878D01*
X019233Y000840D01*
X019221Y000802D01*
X019206Y000766D01*
X019187Y000732D01*
X019165Y000699D01*
X019140Y000669D01*
X019112Y000642D01*
X019081Y000617D01*
X019048Y000596D01*
X019013Y000578D01*
X018976Y000564D01*
X018939Y000553D01*
X018900Y000546D01*
X018861Y000543D01*
X018822Y000544D01*
X018783Y000549D01*
X018744Y000558D01*
X018707Y000570D01*
X018671Y000586D01*
X018637Y000606D01*
X018605Y000629D01*
X018576Y000655D01*
X018549Y000684D01*
X018525Y000715D01*
X018505Y000749D01*
X018488Y000784D01*
X018475Y000821D01*
X018465Y000859D01*
X018459Y000898D01*
X018457Y000937D01*
D11*
X011906Y001205D02*
X011725Y001205D01*
X011633Y001083D01*
X011544Y001205D02*
X011725Y001205D01*
X011735Y001199D02*
X011811Y001083D01*
X011725Y002843D02*
X011817Y002965D01*
X011906Y002843D02*
X011725Y002843D01*
X011544Y002843D01*
X011639Y002965D02*
X011715Y002849D01*
D12*
X011445Y002823D02*
X011295Y002823D01*
X011295Y002923D01*
X011295Y002970D02*
X011295Y003045D01*
X011320Y003070D01*
X011420Y003070D01*
X011445Y003045D01*
X011445Y002970D01*
X011295Y002970D01*
X011370Y002873D02*
X011370Y002823D01*
X011445Y002823D02*
X011445Y002923D01*
X011370Y003118D02*
X011370Y003218D01*
X011445Y003193D02*
X011370Y003118D01*
X011295Y003193D02*
X011445Y003193D01*
X011295Y002776D02*
X011295Y002676D01*
X011445Y002676D01*
X012515Y002823D02*
X012665Y002823D01*
X012665Y002898D01*
X012640Y002923D01*
X012590Y002923D01*
X012565Y002898D01*
X012565Y002823D01*
X012565Y002873D02*
X012515Y002923D01*
X012515Y002970D02*
X012515Y003070D01*
X012515Y003020D02*
X012665Y003020D01*
X012615Y002970D01*
X012590Y003118D02*
X012590Y003218D01*
X012515Y003193D02*
X012665Y003193D01*
X012590Y003118D01*
X012155Y001335D02*
X012155Y001235D01*
X012080Y001235D01*
X012105Y001285D01*
X012105Y001310D01*
X012080Y001335D01*
X012030Y001335D01*
X012005Y001310D01*
X012005Y001260D01*
X012030Y001235D01*
X012030Y001188D02*
X012130Y001188D01*
X012155Y001163D01*
X012155Y001088D01*
X012005Y001088D01*
X012005Y001163D01*
X012030Y001188D01*
X012005Y001041D02*
X012005Y000941D01*
X012155Y000941D01*
X012155Y001041D01*
X012080Y000991D02*
X012080Y000941D01*
X012005Y000893D02*
X012005Y000793D01*
X012155Y000793D01*
X013225Y000797D02*
X013375Y000797D01*
X013375Y000872D01*
X013350Y000897D01*
X013300Y000897D01*
X013275Y000872D01*
X013275Y000797D01*
X013275Y000847D02*
X013225Y000897D01*
X013225Y000944D02*
X013225Y001045D01*
X013225Y000994D02*
X013375Y000994D01*
X013325Y000944D01*
X013300Y001092D02*
X013325Y001142D01*
X013325Y001167D01*
X013300Y001192D01*
X013250Y001192D01*
X013225Y001167D01*
X013225Y001117D01*
X013250Y001092D01*
X013300Y001092D02*
X013375Y001092D01*
X013375Y001192D01*
X010226Y002842D02*
X010201Y002817D01*
X010101Y002817D01*
X010076Y002842D01*
X010076Y002892D01*
X010101Y002917D01*
X010076Y002964D02*
X010076Y003064D01*
X010076Y003111D02*
X010101Y003111D01*
X010201Y003212D01*
X010226Y003212D01*
X010226Y003111D01*
X010226Y003014D02*
X010076Y003014D01*
X010176Y002964D02*
X010226Y003014D01*
X010201Y002917D02*
X010226Y002892D01*
X010226Y002842D01*
X009944Y002340D02*
X009869Y002340D01*
X009844Y002315D01*
X009844Y002265D01*
X009869Y002240D01*
X009944Y002240D01*
X009944Y002190D02*
X009944Y002340D01*
X009894Y002240D02*
X009844Y002190D01*
X009796Y002215D02*
X009771Y002190D01*
X009721Y002190D01*
X009696Y002215D01*
X009696Y002240D01*
X009721Y002265D01*
X009796Y002265D01*
X009796Y002215D01*
X009796Y002265D02*
X009746Y002315D01*
X009696Y002340D01*
X009479Y001190D02*
X009454Y001190D01*
X009429Y001165D01*
X009429Y001115D01*
X009454Y001090D01*
X009479Y001090D01*
X009504Y001115D01*
X009504Y001165D01*
X009479Y001190D01*
X009429Y001165D02*
X009404Y001190D01*
X009379Y001190D01*
X009354Y001165D01*
X009354Y001115D01*
X009379Y001090D01*
X009404Y001090D01*
X009429Y001115D01*
X009354Y001043D02*
X009354Y000943D01*
X009354Y000993D02*
X009504Y000993D01*
X009454Y000943D01*
X009479Y000895D02*
X009504Y000870D01*
X009504Y000820D01*
X009479Y000795D01*
X009379Y000795D01*
X009354Y000820D01*
X009354Y000870D01*
X009379Y000895D01*
X010115Y004552D02*
X010165Y004552D01*
X010190Y004577D01*
X010190Y004627D02*
X010140Y004652D01*
X010115Y004652D01*
X010090Y004627D01*
X010090Y004577D01*
X010115Y004552D01*
X010190Y004627D02*
X010190Y004702D01*
X010090Y004702D01*
X010237Y004677D02*
X010237Y004627D01*
X010262Y004602D01*
X010338Y004602D01*
X010338Y004552D02*
X010338Y004702D01*
X010262Y004702D01*
X010237Y004677D01*
X010287Y004602D02*
X010237Y004552D01*
D13*
X010406Y003339D02*
X011154Y003339D01*
X011154Y002493D01*
X010406Y002493D01*
X010406Y003339D01*
X011114Y002597D02*
X011042Y002524D01*
X011154Y001567D02*
X010406Y001567D01*
X010406Y000721D01*
X011154Y000721D01*
X011154Y001567D01*
X011114Y000825D02*
X011042Y000752D01*
D14*
X009796Y000882D02*
X009772Y000882D01*
X009808Y003162D02*
X009784Y003162D01*
D15*
X009993Y004272D03*
X009599Y001910D03*
D16*
X012945Y001142D03*
X012945Y002910D03*
M02*
